<svg width="227" height="204" viewBox="0 0 227 204" fill="none" xmlns="http://www.w3.org/2000/svg">
<g clip-path="url(#clip0_97_54)">
<path d="M78.4331 126.066L61.2711 137.933L53.7915 178.003H59.683L69.2117 146.255L79.5089 143.276L78.4331 126.066Z" fill="#D86A7D"/>
<path d="M144.725 126.066L161.887 137.933L169.366 178.003H163.475L153.946 146.255L143.649 143.276L144.725 126.066Z" fill="#D86A7D"/>
<path d="M114.96 143.533H108.864H82.8901L86.2713 162.746H108.864H114.96H137.553L140.934 143.533H114.96Z" fill="#313280"/>
<path d="M90.3694 160.537C89.1911 160.537 88.2178 159.561 88.2178 158.379V150.571C88.2178 149.389 89.1911 148.413 90.3694 148.413C91.5477 148.413 92.5211 149.389 92.5211 150.571V158.379C92.5211 159.561 91.5477 160.537 90.3694 160.537Z" fill="#4343AA"/>
<path d="M99.0789 160.537C97.9006 160.537 96.9272 159.561 96.9272 158.379V150.571C96.9272 149.389 97.9006 148.413 99.0789 148.413C100.257 148.413 101.231 149.389 101.231 150.571V158.379C101.231 159.561 100.257 160.537 99.0789 160.537Z" fill="#4343AA"/>
<path d="M107.788 160.537C106.61 160.537 105.636 159.561 105.636 158.379V150.571C105.636 149.389 106.61 148.413 107.788 148.413C108.966 148.413 109.94 149.389 109.94 150.571V158.379C109.94 159.561 108.966 160.537 107.788 160.537Z" fill="#4343AA"/>
<path d="M116.497 160.537C115.319 160.537 114.345 159.561 114.345 158.379V150.571C114.345 149.389 115.319 148.413 116.497 148.413C117.675 148.413 118.649 149.389 118.649 150.571V158.379C118.649 159.561 117.726 160.537 116.497 160.537Z" fill="#4343AA"/>
<path d="M125.257 160.537C124.079 160.537 123.105 159.561 123.105 158.379V150.571C123.105 149.389 124.079 148.413 125.257 148.413C126.435 148.413 127.409 149.389 127.409 150.571V158.379C127.358 159.561 126.435 160.537 125.257 160.537Z" fill="#4343AA"/>
<path d="M133.966 160.537C132.788 160.537 131.814 159.561 131.814 158.379V150.571C131.814 149.389 132.788 148.413 133.966 148.413C135.144 148.413 136.118 149.389 136.118 150.571V158.379C136.067 159.561 135.144 160.537 133.966 160.537Z" fill="#4343AA"/>
<path d="M146.415 123.857H76.1276C76.1276 123.857 75.9739 82.7076 86.5272 51.5245C87.1932 49.5723 87.9105 47.6715 88.6277 45.7708C90.7281 45.4112 93.2384 45.0516 96.1585 44.7433C99.6421 44.3837 103.689 44.1782 108.402 44.1782C109.017 44.1782 109.632 44.1782 110.247 44.1782C113.679 44.2296 116.907 44.3323 119.878 44.5378C122.952 44.7433 125.718 45.0002 128.28 45.257C130.38 45.5139 132.327 45.7708 134.017 46.0276C134.069 46.2331 134.171 46.4386 134.222 46.6441C134.325 46.9523 134.479 47.2606 134.581 47.6202C134.735 48.0825 134.888 48.4935 135.093 48.9559C135.247 49.4182 135.401 49.8806 135.554 50.2915C135.657 50.5998 135.759 50.908 135.862 51.2162C146.518 82.4507 146.415 123.857 146.415 123.857Z" fill="#5454C8"/>
<path d="M140.473 123.857C139.909 134.645 138.526 143.841 137.655 149.029H93.4436C91.4456 144.098 88.7816 135.827 87.3984 123.857H114.345C114.602 132.539 114.653 140.964 114.345 148.464H127.358C127.358 148.464 127.563 138.19 127.358 123.857H140.473Z" fill="#9A7BF0"/>
<path d="M127.409 123.857H114.345C113.577 96.6808 110.759 66.5252 109.171 51.3703C113.474 51.3189 117.829 51.319 121.773 51.2676C125.974 69.5562 127.101 101.561 127.409 123.857Z" fill="#7272DB"/>
<path d="M110.093 90.5161C119.939 90.5161 127.921 82.7651 127.921 73.2036C127.921 63.6422 119.939 55.8911 110.093 55.8911C100.247 55.8911 92.2651 63.6422 92.2651 73.2036C92.2651 82.7651 100.247 90.5161 110.093 90.5161Z" fill="#4343AA"/>
<path d="M127.921 71.3031C127.921 72.8956 127.716 74.4368 127.306 75.8752C126.999 76.9541 126.589 78.0329 126.077 79.009C123.31 84.3517 117.726 87.9478 111.323 87.9478C102.152 87.9478 94.6729 80.4988 94.6729 71.2517C94.6729 66.8337 96.3634 62.8266 99.1811 59.847C100.513 58.4086 102.05 57.227 103.843 56.3537C106.097 55.2235 108.607 54.5557 111.323 54.5557C120.442 54.607 127.921 62.1074 127.921 71.3031Z" fill="#9A7BF0"/>
<path d="M178.331 178.003H43.3403V186.891H178.331V178.003Z" fill="#FFB5B3"/>
<path d="M185.35 186.891H33.4019V195.779H185.35V186.891Z" fill="#FF9A8D"/>
<path d="M108.454 44.2295C108.659 45.9248 108.915 48.3393 109.222 51.3703C103.894 51.4216 98.6687 51.4216 94.5703 51.473C95.1851 48.853 95.7486 46.5926 96.2097 44.7946C99.6933 44.435 103.74 44.2295 108.454 44.2295Z" fill="#D86A7D"/>
<path d="M130.175 51.216C127.87 51.216 125.001 51.216 121.825 51.2674C121.261 48.7501 120.595 46.4898 119.929 44.5376C123.003 44.7431 125.769 45 128.331 45.2568C128.69 46.4384 129.304 48.4933 130.175 51.216Z" fill="#D86A7D"/>
<path d="M93.4944 149.029H76.1787V123.857H87.4493C88.8325 135.827 91.4452 144.098 93.4944 149.029Z" fill="#826ADB"/>
<path d="M96.2098 44.7949C95.7488 46.593 95.1853 48.9047 94.5705 51.4733C89.7549 51.5247 86.5786 51.5247 86.5786 51.5247C87.2446 49.5726 87.9618 47.6718 88.679 45.771C89.3963 45.6683 90.1647 45.5141 90.9844 45.4114C91.1381 45.36 91.2918 45.36 91.4967 45.36C92.8799 45.1545 94.468 44.949 96.2098 44.7949Z" fill="#BA5B70"/>
<path d="M86.5272 112.247C86.6809 116.459 86.9883 120.312 87.3982 123.857H76.1276C76.1276 123.857 75.9739 82.7076 86.5272 51.5245C86.5272 51.5245 89.7547 51.5245 94.5191 51.4731C91.0867 66.3712 85.81 92.5197 86.5272 112.247Z" fill="#4343AA"/>
<path d="M146.415 123.857V149.029H137.706C138.577 143.841 139.909 134.645 140.524 123.857H146.415Z" fill="#AB97F7"/>
<path d="M135.913 51.2164C135.862 51.2164 133.659 51.2164 130.175 51.2164C129.356 48.4423 128.69 46.4388 128.331 45.3086C130.431 45.5655 132.378 45.8223 134.069 46.0792C134.12 46.2847 134.223 46.4902 134.274 46.6957C134.376 47.0039 134.53 47.3121 134.632 47.6717C134.786 48.1341 134.94 48.5451 135.145 49.0074C135.298 49.4698 135.452 49.9321 135.606 50.3431C135.708 50.6 135.811 50.9596 135.913 51.2164Z" fill="#ED8EA3"/>
<path d="M146.415 123.857H140.524C141.036 114.558 140.985 104.078 139.55 94.0094C136.938 75.5667 132.737 59.8468 130.175 51.2162C133.659 51.2162 135.862 51.1648 135.913 51.2162C146.518 82.4506 146.415 123.857 146.415 123.857Z" fill="#7272DB"/>
<path d="M126.026 79.0086C123.259 84.3513 117.675 87.9474 111.271 87.9474C102.101 87.9474 94.6216 80.4984 94.6216 71.2514C94.6216 66.8333 96.3122 62.8263 99.1298 59.8467C99.5397 60.5145 100.359 61.8502 101.589 63.4428C99.847 65.6004 98.8224 68.3231 98.8224 71.3027C98.8224 78.1866 104.407 83.7862 111.271 83.7862C115.472 83.7862 119.212 81.68 121.466 78.4435C122.952 78.8031 124.437 79.0086 126.026 79.0086Z" fill="#826ADB"/>
<path d="M121.466 78.4436C119.212 81.6801 115.472 83.7864 111.272 83.7864C104.407 83.7864 98.8228 78.1868 98.8228 71.3029C98.8228 68.3233 99.8474 65.6005 101.589 63.4429C105.278 68.3746 112.296 76.2346 121.466 78.4436Z" fill="#FFD00A"/>
<path d="M123.72 71.3031C123.72 73.9745 122.901 76.389 121.466 78.4439C112.296 76.2348 105.226 68.4262 101.589 63.4945C103.843 60.669 107.327 58.871 111.271 58.871C118.136 58.8196 123.72 64.4192 123.72 71.3031Z" fill="#FFE98A"/>
<path d="M121.825 51.2675C117.88 51.3189 113.525 51.3189 109.222 51.3703C108.915 48.3393 108.659 45.8734 108.454 44.2295C109.068 44.2295 109.683 44.2295 110.298 44.2295C111.118 44.2295 111.937 44.2295 112.706 44.2809C112.808 44.2809 112.911 44.2809 113.013 44.2809C114.191 44.2809 115.37 44.3322 116.497 44.3836C117.675 44.435 118.853 44.4864 119.98 44.5891C120.595 46.4899 121.21 48.7503 121.825 51.2675Z" fill="#ED8EA3"/>
<path d="M127.358 148.413H114.345C114.601 140.913 114.55 132.539 114.345 123.806H127.409C127.563 138.139 127.358 148.413 127.358 148.413Z" fill="#AB97F7"/>
<path d="M127.255 75.8751C127.665 68.1179 122.645 60.1552 114.755 57.4324C110.452 55.9426 106.661 55.9426 103.792 56.405C106.046 55.2748 108.556 54.6069 111.272 54.6069C120.442 54.6069 127.921 62.0559 127.921 71.303C127.921 72.8955 127.716 74.4367 127.255 75.8751Z" fill="#AB97F7"/>
<path d="M61.271 137.933L66.4452 155.554L69.2116 146.255L76.5888 144.097L76.1277 127.607L61.271 137.933Z" fill="#BA5B70"/>
<path d="M146.415 133.823L157.788 141.58L166.19 178.004H163.475L153.946 146.255L146.415 144.046V133.823Z" fill="#BA5B70"/>
<path d="M4.81562 192.901H7.58204V189.203H1.33198C0.61476 189.203 0 188.637 0 187.867C0 187.148 0.56353 186.531 1.33198 186.531H7.58204V159.355H3.0738C1.79305 159.355 0.71722 158.328 0.71722 156.992C0.71722 155.708 1.74182 154.629 3.0738 154.629H14.6005C15.8813 154.629 16.9571 155.656 16.9571 156.992C16.9571 158.276 15.9325 159.355 14.6005 159.355H10.0411V186.531H17.1108C17.828 186.531 18.4428 187.096 18.4428 187.867C18.4428 188.586 17.8793 189.203 17.1108 189.203H10.0411V192.901H12.7563C15.4202 192.901 17.5719 195.059 17.5719 197.73H10.0411H7.53081H0C0 195.059 2.15166 192.901 4.81562 192.901Z" fill="#9A7BF0"/>
<path d="M10.4508 189.049L9.9385 190.59C9.9385 190.59 9.52867 191.258 8.29915 191.155C7.12086 191.052 6.81348 190.641 6.81348 190.641L7.06963 188.689L10.4508 189.049Z" fill="#FFB696"/>
<path d="M21.2605 185.812L20.0309 187.867C20.0309 187.867 18.8527 187.764 18.0842 187.405C17.3158 187.045 17.1108 186.531 17.1108 186.531L18.1354 184.579L21.2605 185.812Z" fill="#FFB696"/>
<path d="M20.1846 187.61C20.1846 187.61 21.2092 190.333 21.9777 191.412C22.7973 192.49 23.0535 192.747 23.0023 193.21C22.8998 193.672 21.0043 193.775 19.5186 192.696C18.0329 191.617 17.8793 191.103 17.2133 190.281C16.5473 189.459 15.8813 188.894 15.6764 188.381C15.4715 187.816 17.4694 185.812 17.4694 185.812C17.4694 185.812 17.7256 187.302 20.1846 187.61Z" fill="#313280"/>
<path d="M9.93844 190.539C9.93844 190.539 10.1434 192.799 10.7069 194.494C11.2704 196.138 11.7827 196.96 11.5266 197.679C11.2704 198.399 10.297 198.707 8.65769 198.244C7.01833 197.782 6.71095 196.549 6.40357 195.008C6.09619 193.467 6.09619 193.261 6.09619 193.005C6.14742 192.748 6.86464 190.025 6.86464 190.025C6.86464 190.025 8.14539 191.155 9.93844 190.539Z" fill="#313280"/>
<path d="M27.9205 170.092L21.9778 186.84C21.9778 186.84 20.8508 186.942 19.4163 186.223C18.8528 185.966 18.1868 185.504 17.5721 184.887C17.5721 184.887 19.6213 171.068 21.568 168.602L13.9347 157.968C14.9593 162.129 16.0352 167.318 15.8302 170.554L11.322 188.894C10.4511 189.871 9.11912 189.87 8.04329 189.614C7.01869 189.357 6.19901 188.894 6.19901 188.894C6.19901 188.894 8.9142 170.709 8.9142 170.657C8.04329 168.191 5.02072 159.355 4.66211 155.451C4.86703 152.831 5.48179 148.053 5.48179 148.053H7.68468L18.9553 148.002L19.2114 150.776C19.2114 150.776 24.8979 158.636 27.7156 165.006C28.3816 166.547 28.484 168.397 27.9205 170.092Z" fill="#313280"/>
<path d="M19.9286 124.884C19.9286 124.884 21.2605 125.552 21.4655 127.35L25.9737 140.399L21.7216 142.865C21.7216 142.865 19.2626 138.241 18.904 134.851C18.5966 131.46 19.9286 124.884 19.9286 124.884Z" fill="#D86A7D"/>
<path d="M14.8568 123.292L19.9798 124.884C19.9798 124.884 20.6458 127.967 20.6458 130.946C20.6458 133.926 19.6212 139.782 19.6212 139.782L19.0064 148.362L5.58415 148.002C5.58415 148.002 4.25218 129.046 4.96939 124.628L11.0658 122.367L14.8568 123.292Z" fill="#FF8B9B"/>
<path d="M10.912 122.675L11.3731 118.925C10.9633 116.922 10.451 113.223 11.6292 112.144C13.3198 110.706 19.6211 110.552 19.5187 115.689C19.5187 115.689 18.8014 119.953 17.6744 121.802C17.2133 122.573 16.1375 122.419 15.0616 122.008L14.4469 124.628L10.912 122.675Z" fill="#FFB696"/>
<path d="M19.3651 114.97C19.3651 114.97 15.779 115.432 14.4983 114.199C14.4983 114.199 14.7032 115.586 14.1397 116.459C13.5762 117.333 12.8589 117.23 12.8589 117.23C12.8589 117.23 12.8589 115.843 12.2442 115.894C11.6294 115.946 11.527 117.384 11.8343 118.257C12.1417 119.131 12.5516 119.131 12.5516 119.131L11.322 119.747C11.322 119.747 10.3999 115.586 10.3999 114.25C10.3999 112.915 11.1171 112.401 11.1171 112.401C11.1171 112.401 11.527 111.014 13.3712 110.808C15.1643 110.603 17.3159 111.373 19.0578 112.298C20.8508 113.223 21.0557 114.148 20.902 114.353C20.7484 114.559 20.3385 114.559 20.3385 114.559C20.3385 114.559 20.6459 116.357 19.3651 116.613C19.3651 116.613 19.5188 115.432 19.3651 114.97Z" fill="#313280"/>
<path d="M8.04329 189.562C7.01869 189.305 6.19901 188.843 6.19901 188.843C6.19901 188.843 8.9142 170.657 8.9142 170.606C8.04329 168.14 5.02072 159.304 4.66211 155.4C4.86703 152.78 5.48179 148.002 5.48179 148.002L7.68468 148.053C7.68468 148.053 6.40393 151.804 7.06992 156.273C7.73591 160.742 10.9122 170.863 11.0659 171.787C11.2195 172.712 7.12115 184.631 8.04329 189.562Z" fill="#26295E"/>
<path d="M15.0617 122.059C15.0617 122.059 13.0637 121.34 12.7051 119.747C12.7051 119.747 12.7051 122.521 14.8055 123.138L15.0617 122.059Z" fill="#D88C71"/>
<path d="M11.1169 121.186L14.4469 124.679L12.3464 125.963L10.1436 122.727L11.1169 121.186Z" fill="#FFEFCA"/>
<path d="M14.8054 122.983L14.4468 124.679L16.0349 125.295L15.8812 123.189L15.0103 122.213L14.8054 122.983Z" fill="#FFEFCA"/>
<path d="M4.86697 124.679C4.86697 124.679 6.35264 125.706 6.9674 128.583C7.63339 131.46 7.73585 142.197 7.73585 142.197L3.63746 142.865C3.63746 142.865 1.84441 134.131 2.40794 129.662C3.0227 125.192 4.86697 124.679 4.86697 124.679Z" fill="#D86A7D"/>
<path d="M37.9616 146.101C37.9616 145.947 37.7567 145.588 37.603 145.228C37.4493 144.869 36.9882 144.56 36.4759 144.252C35.9636 143.944 33.2997 144.098 33.2997 144.098L33.2485 144.149L26.025 140.399C23.8734 140.245 21.7729 142.865 21.7729 142.865C22.7975 143.944 29.0476 145.382 31.5066 145.896L32.8899 147.026L35.4513 147.848C35.4513 147.848 35.605 147.386 35.4513 147.129C35.2977 146.923 34.1194 146.512 33.9144 146.204C33.7095 145.896 33.7608 145.69 34.8878 145.639C36.0149 145.639 36.0661 146.101 36.3735 146.307C36.6809 146.512 36.8858 147.283 37.3981 147.334C37.9616 147.437 37.9616 147.437 37.9616 147.437L37.8592 146.615C37.7567 146.667 37.9616 146.256 37.9616 146.101Z" fill="#FFB696"/>
<path d="M7.73597 142.197L16.3938 146.923L14.3959 149.235C14.3959 149.235 6.55768 146.923 5.02078 145.69C3.48388 144.457 3.63757 142.813 3.63757 142.813C3.63757 142.813 5.84046 141.837 7.73597 142.197Z" fill="#FFB696"/>
<path d="M5.02811 151.34H57.2314V149.234H5.02811V151.34Z" fill="#FF8B9B"/>
<path d="M55.4306 126.683L51.6396 143.327C51.5371 143.841 51.0761 144.201 50.5125 144.201H24.1803C23.4631 144.201 22.8996 143.533 23.0533 142.814L26.5881 126.169C26.6394 125.809 26.8955 125.552 27.2029 125.398C27.3566 125.296 27.5615 125.296 27.7152 125.296H54.3036C55.072 125.244 55.5843 125.963 55.4306 126.683Z" fill="#9A7BF0"/>
<path d="M49.6929 144.2H24.1803C23.4631 144.2 22.8996 143.532 23.0533 142.813L26.5881 126.169C26.6394 125.809 26.8955 125.552 27.2029 125.398C27.3566 125.603 34.6312 138.601 49.6929 144.2Z" fill="#836CD8"/>
<path d="M43.033 136.238L45.5433 149.235H32.6333L33.0431 148.208H38.2686L36.5268 136.238H43.033Z" fill="#5454C9"/>
<path d="M15.83 147.026L20.5944 146.667L22.6436 148.156L22.8997 149.235H14.4468C14.4468 149.235 14.8566 147.591 15.83 147.026Z" fill="#FFB696"/>
<path d="M52.613 151.341L46.9777 197.731H30.123L36.3219 151.341H52.613Z" fill="#D86A7D"/>
<path d="M52.1009 155.554L34.8364 162.746L36.3221 151.341H52.6132L52.1009 155.554Z" fill="#BA5B70"/>
<path d="M23.7197 168.089C23.7197 168.089 21.4656 174.716 20.441 179.853C19.775 183.295 19.5188 185.247 19.4164 186.223C18.8529 185.966 18.1869 185.504 17.5721 184.887C17.5721 184.887 19.6213 171.068 21.568 168.602L13.9348 157.968L13.5762 155.348L23.7197 168.089Z" fill="#26295E"/>
<path d="M108.607 31.5405C108.607 31.5405 128.28 42.7911 153.69 47.0036C153.639 47.0036 132.481 32.4139 108.607 31.5405Z" fill="#4343AA"/>
<path d="M155.483 82.0396L155.431 84.6082C155.431 84.6082 151.897 86.3548 150.923 86.8172C149.899 87.2795 149.694 87.9474 150.411 88.2042C151.128 88.4611 159.991 88.5125 160.145 88.2042C160.503 87.3823 159.222 84.6595 159.222 84.6595L159.018 82.0909H155.483V82.0396Z" fill="#313280"/>
<path d="M175.001 81.3715L176.333 83.5805C176.333 83.5805 174.694 85.995 173.874 86.5087C173.413 86.817 172.132 86.9711 171.825 87.4848C171.518 87.9985 171.825 88.4095 173.925 88.4095C176.026 88.4609 176.538 88.4095 177.768 87.5362C178.997 86.7142 181.303 84.6079 181.251 83.9915C181.2 83.4264 179.561 82.0393 179.561 82.0393L178.844 80.4468L175.001 81.3715Z" fill="#313280"/>
<path d="M164.653 44.4349C164.653 44.4349 164.345 55.1203 166.497 62.8262C168.7 70.5321 174.643 82.7587 174.643 82.7587L180.79 81.012C180.79 81.012 176.385 65.0352 173.413 60.874C173.413 60.874 172.337 43.0478 171.108 40.6333C169.93 38.1674 164.653 44.4349 164.653 44.4349Z" fill="#DD7385"/>
<path d="M149.335 2.87453C151.794 0.511395 156.61 1.17924 157.378 4.00472C157.993 6.36785 157.839 8.8851 157.122 10.7345L158.352 13.9196L155.124 16.5396L153.792 14.1251C153.126 14.4333 152.409 14.6388 151.743 14.6388C150.104 14.7416 148.977 12.4812 148.311 8.5255C147.645 4.62119 149.335 2.87453 149.335 2.87453Z" fill="#FF9F7F"/>
<path d="M153.229 44.3837C149.182 42.3802 143.7 39.9657 136.989 37.4998C135.145 36.832 133.147 36.1128 131.149 35.4449C122.081 32.4653 115.011 31.0783 110.093 30.4618C111.681 28.561 113.27 26.7116 114.909 25.0163C122.44 17.2077 130.841 11.9164 139.755 11.5054C140.268 11.9164 140.729 12.3273 141.241 12.7383C142.061 13.4575 142.829 14.2795 143.546 15.1014C149.54 22.1395 152.358 32.6708 153.229 44.3837Z" fill="#D86A7D"/>
<path d="M137.245 37.8592C143.854 31.1808 142.317 17.978 141.446 13.0977C149.079 20.0329 152.512 31.6431 153.485 44.7431C149.438 42.7396 143.905 40.2737 137.245 37.8592Z" fill="#BA5B70"/>
<path d="M164.499 17.156C164.499 17.156 169.776 23.372 170.545 33.9548L159.837 38.0132C159.837 38.0132 153.075 26.8654 152.307 22.9097C151.589 18.954 153.792 14.8442 153.792 14.8442L157.788 12.1729C157.84 12.1729 162.911 14.4846 164.499 17.156Z" fill="#9A7BF0"/>
<path d="M160.401 17.1561C161.63 18.1836 161.835 20.033 160.811 21.2659C158.71 23.8346 155.175 27.9443 152.768 30.102C149.079 33.4412 136.271 29.5369 136.271 29.5369L136.886 26.1463L150.052 26.0949L156.251 17.6699C157.225 16.3342 159.12 16.1287 160.401 17.1561Z" fill="#5454C8"/>
<path d="M148.054 5.34048C148.054 5.34048 147.645 3.28558 149.335 1.84716C151.026 0.408728 153.434 0.511473 154.561 0.973825C155.688 1.43618 155.944 1.64167 155.944 1.64167C155.944 1.64167 155.79 0.819707 156.712 0.151865C157.583 -0.464604 159.479 0.768335 159.632 2.30951C159.786 3.85068 158.352 3.85068 158.352 3.85068C158.352 3.85068 158.659 5.18637 158.352 7.24126C158.044 9.29616 157.122 10.6832 157.122 10.6832C157.122 10.6832 155.944 10.0667 155.483 9.19342C155.483 9.19342 156.661 7.5495 156.251 6.4193C155.841 5.28911 154.612 5.75146 154.458 6.83028C154.304 7.90911 154.305 7.90911 154.305 7.90911L153.587 7.75499C153.587 7.75499 153.075 6.36793 153.28 4.77539C153.229 4.77539 148.413 6.21381 148.054 5.34048Z" fill="#313280"/>
<path d="M149.95 14.7929C151.282 15.4607 153.126 15.1525 153.843 13.9709C154.561 12.7893 154.356 8.62816 154.356 8.62816L153.587 8.26855L152.768 10.3748C152.768 10.3748 149.54 9.8611 148.72 10.3235C148.669 10.3235 148.618 14.1764 149.95 14.7929Z" fill="#313280"/>
<path d="M157.737 11.4536L153.843 14.8442L154.56 16.8991L159.069 12.7893L157.737 11.4536Z" fill="#5454C8"/>
<path d="M136.835 26.1464L135.759 25.9923C135.759 25.9923 133.505 25.119 132.788 24.9135C132.071 24.708 131.866 25.1703 132.019 25.5299C132.019 25.5299 131.61 25.9409 131.866 26.506C131.866 26.506 131.507 26.8656 131.814 27.3794C131.814 27.3794 131.661 27.8931 131.968 28.2013C132.224 28.5095 132.788 28.715 133.044 28.7664C133.351 28.8178 133.505 28.7664 133.505 28.7664C133.505 28.7664 134.12 29.126 134.632 29.126C135.196 29.126 135.605 28.9205 135.605 28.9205L136.374 29.126L136.835 26.1464Z" fill="#FF9F7F"/>
<path d="M170.596 33.9551L171.108 35.6504L160.555 39.7088L159.837 38.0135L170.596 33.9551Z" fill="#5454C8"/>
<path d="M171.108 35.6504L160.554 39.7088L152.102 57.6892C151.436 59.179 151.128 60.8229 151.384 62.4154L153.946 82.7076H159.837C159.837 82.7076 160.554 77.9813 160.35 70.8405C160.196 66.5252 159.325 63.186 158.659 61.2339C159.325 60.3605 169.52 47.4147 171.108 43.6645C172.747 39.8116 171.108 35.6504 171.108 35.6504Z" fill="#FF8B9B"/>
<path d="M223.465 198.501H227L177.87 90.1048H183.557V87.9985H139.499V90.1048H146.364L156.61 113.12V113.222H156.661L162.399 126.066V126.322H162.501L168.188 139.063V139.474H168.393L173.977 152.06V152.625H174.233L179.766 165.057V165.776H180.073L185.555 178.054V178.928H185.913L191.293 191.052V192.028H191.754L194.674 198.552H198.209L195.237 192.028H220.545L223.465 198.501ZM184.53 111.065H158.608L153.638 100.071H179.612L184.53 111.065ZM175.155 90.1048L178.639 97.9648H152.665L149.079 90.1048H175.155ZM185.452 113.171L190.37 124.165H164.55L159.581 113.171H185.452ZM191.344 126.322L196.262 137.316H170.544L165.575 126.322H191.344ZM197.184 139.474L202.102 150.467H176.487L171.518 139.474H197.184ZM203.024 152.574L207.942 163.567H182.43L177.46 152.574H203.024ZM208.864 165.725L213.782 176.719H188.372L183.403 165.725H208.864ZM194.315 189.87L189.346 178.876H214.756L219.674 189.87H194.315Z" fill="#D86A7D"/>
<path d="M153.639 44.2294V47.0035C153.639 47.0035 142.778 40.4279 131.61 36.8318C120.442 33.2357 108.556 31.5404 108.556 31.5404L109.53 30.1534L110.042 29.4855C110.042 29.4855 119.161 29.1259 132.788 33.9549C146.415 38.7839 153.639 44.2294 153.639 44.2294Z" fill="#9A7BF0"/>
<path d="M143.495 15.1014C141.446 13.8685 138.474 13.0465 134.581 14.0226C128.587 15.5638 119.622 21.6257 114.857 25.0163C122.388 17.2077 130.79 11.9164 139.704 11.5054C140.216 11.9164 140.677 12.3273 141.19 12.7383C142.009 13.4575 142.778 14.2281 143.495 15.1014Z" fill="#ED8EA3"/>
<path d="M153.639 44.2294V47.0035C153.639 47.0035 142.778 40.4278 131.61 36.8317C120.442 33.2357 108.556 31.5404 108.556 31.5404L109.53 30.1533C111.527 30.1533 116.702 30.5129 125.001 33.287C136.015 36.9345 151.384 44.0239 153.639 44.2294Z" fill="#826ADB"/>
<path d="M158.455 111.168H137.092V154.629H158.455V111.168Z" fill="#8CD3E8"/>
<path d="M139.551 114.147H156.252" stroke="#5454C8" stroke-width="0.5" stroke-miterlimit="10"/>
<path d="M158.455 154.578H137.092V111.117C137.092 111.168 143.291 143.79 158.455 154.578Z" fill="#71BBCC"/>
<path d="M139.755 115.843H156.251" stroke="#5454C8" stroke-width="0.5" stroke-miterlimit="10"/>
<path d="M139.551 146.923H156.252" stroke="#5454C8" stroke-width="0.5" stroke-miterlimit="10"/>
<path d="M139.755 148.619H156.251" stroke="#5454C8" stroke-width="0.5" stroke-miterlimit="10"/>
<path d="M139.551 150.468H156.252" stroke="#5454C8" stroke-width="0.5" stroke-miterlimit="10"/>
<path d="M139.755 152.163H156.251" stroke="#5454C8" stroke-width="0.5" stroke-miterlimit="10"/>
<path d="M151.333 125.552C150.821 121.391 146.723 118.668 146.723 118.668C146.723 118.668 142.624 121.391 142.112 125.552C141.6 129.714 144.417 140.142 144.417 140.142H146.723H149.028C149.028 140.142 151.846 129.714 151.333 125.552Z" stroke="white" stroke-width="0.5" stroke-miterlimit="10" stroke-linecap="round" stroke-linejoin="round" stroke-dasharray="1 1"/>
<path d="M143.188 135.005C143.188 135.005 140.832 136.7 140.268 137.265C139.653 137.882 139.653 141.118 139.653 141.118L141.293 138.601L143.957 138.344" stroke="white" stroke-width="0.5" stroke-miterlimit="10" stroke-linecap="round" stroke-linejoin="round" stroke-dasharray="1 1"/>
<path d="M150.258 135.005C150.258 135.005 152.614 136.7 153.178 137.265C153.793 137.882 153.793 141.118 153.793 141.118L152.153 138.601L149.489 138.344" stroke="white" stroke-width="0.5" stroke-miterlimit="10" stroke-linecap="round" stroke-linejoin="round" stroke-dasharray="1 1"/>
<path d="M149.489 127.813C149.489 129.303 148.311 130.484 146.825 130.484C145.339 130.484 144.161 129.303 144.161 127.813C144.161 126.323 145.339 125.142 146.825 125.142C148.311 125.142 149.489 126.375 149.489 127.813Z" fill="#FFE98A"/>
<path d="M156.252 118.104H150.77V119.85H156.252V118.104Z" fill="#FFE98A"/>
<path d="M155.278 121.699C155.278 122.316 154.817 122.778 154.202 122.778C153.588 122.778 153.126 122.316 153.126 121.699C153.126 121.083 153.588 120.621 154.202 120.621C154.817 120.621 155.278 121.083 155.278 121.699Z" fill="white"/>
<path d="M169.059 138.601C169.059 138.601 170.237 139.577 169.827 144.663C169.418 149.749 167.778 150.16 165.832 149.852L169.059 138.601Z" fill="#FFB696"/>
<path d="M164.09 133.464L163.424 137.162L159.479 138.036L159.684 135.364C158.762 135.416 157.942 135.313 157.533 134.851C157.43 134.697 157.328 134.542 157.276 134.337C156.713 132.231 157.328 127.915 157.328 127.915C158.762 122.984 163.834 124.782 165.012 126.682C165.781 128.121 165.063 131.717 164.09 133.464Z" fill="#FFB696"/>
<path d="M159.684 135.365C158.762 135.416 157.942 135.313 157.532 134.851C158.045 134.8 159.428 134.594 160.042 133.823C160.657 133.104 159.684 135.365 159.684 135.365Z" fill="#D88E75"/>
<path d="M166.549 132.642C166.498 132.745 166.447 132.899 166.344 133.001C165.063 135.313 162.963 135.313 161.272 134.697C159.582 134.08 159.838 133.053 159.838 133.053C159.838 133.053 160.299 133.31 160.76 132.59C161.016 132.18 161.17 131.46 161.067 130.895C161.016 130.536 160.863 130.227 160.555 130.227C160.504 130.227 160.401 130.227 160.35 130.227C159.838 130.33 159.633 131.101 159.633 131.101C159.274 130.536 159.479 130.022 159.479 130.022C157.994 129.611 157.891 128.686 157.891 128.686L157.738 129.354C156.969 129.2 155.996 128.018 156.508 126.58C156.969 125.296 157.942 124.885 158.147 124.782C158.199 124.782 158.199 124.782 158.199 124.782C159.172 124.114 162.553 123.189 164.551 124.268C166.6 125.347 166.395 127.042 166.395 127.042C167.574 128.172 167.625 130.433 166.549 132.642Z" fill="#313280"/>
<path d="M169.315 127.453C169.315 127.504 169.315 127.556 169.264 127.556C169.008 128.686 168.137 129.097 167.266 128.891C167.01 128.84 166.702 128.737 166.446 128.583C166.241 128.429 166.036 128.275 165.883 128.07C165.627 127.761 165.422 127.402 165.319 127.093C165.319 127.042 165.268 126.991 165.268 126.939C165.165 126.631 165.114 126.426 165.114 126.426C165.114 126.426 165.114 126.271 165.114 126.015V125.963C165.114 125.912 165.114 125.861 165.114 125.809C165.165 125.141 165.422 124.114 166.651 123.96C168.444 123.652 169.623 125.861 169.315 127.453Z" fill="#313280"/>
<path d="M167.215 154.526V154.937C167.215 154.937 164.961 155.811 161.785 155.657C160.555 155.605 159.377 155.4 158.352 155.246C156.815 154.989 155.739 154.681 155.739 154.681L156.457 150.776L156.149 148.002C155.381 147.386 154.407 146.461 154.202 145.536C153.998 144.56 154.664 141.529 155.227 139.526L155.022 137.728C155.278 137.676 155.483 137.573 155.739 137.522C155.791 137.522 155.842 137.522 155.893 137.471C158.813 136.752 163.27 136.238 163.27 136.238C165.729 136.495 169.008 138.601 169.008 138.601C168.854 140.296 167.112 147.848 167.112 147.848L167.164 151.495L167.215 154.526Z" fill="#9A7BF0"/>
<path d="M167.215 154.526L158.352 155.194C156.815 154.937 155.739 154.629 155.739 154.629L156.457 150.725L156.149 147.951C155.381 147.334 154.407 146.41 154.202 145.485C153.998 144.509 154.664 141.478 155.227 139.474L155.022 137.676C155.278 137.625 155.483 137.522 155.739 137.471C155.791 137.471 155.842 137.471 155.893 137.419C156.149 139.783 157.328 148.054 159.684 149.903C161.836 151.598 165.627 151.547 167.164 151.444L167.215 154.526Z" fill="#7961D1"/>
<path d="M155.022 137.728L147.389 142.916L140.217 136.289C140.217 136.289 139.807 134.799 139.704 134.44C139.602 134.132 138.885 133.258 138.68 133.207C138.475 133.155 138.526 133.464 138.577 133.618C138.629 133.772 138.885 134.543 138.885 134.543L137.45 133.823C137.45 133.823 137.092 132.899 136.887 132.847C136.631 132.796 136.733 133.721 136.938 134.132C136.938 134.132 136.631 134.388 136.733 134.748C136.733 134.748 136.477 135.005 136.631 135.416C136.631 135.416 136.272 135.775 136.938 136.546C137.604 137.265 138.526 137.933 138.526 137.933C139.346 139.115 144.161 145.999 147.03 146.769C150.155 147.643 154.664 144.149 154.664 144.149C154.664 144.149 157.993 141.529 155.022 137.728Z" fill="#FFB696"/>
<path d="M163.68 203.947C163.27 203.998 155.176 204.152 155.022 203.741C154.868 203.33 154.715 202.971 156.508 202.406C156.866 202.303 157.276 202.097 157.635 201.892C158.659 201.275 159.684 200.402 160.196 199.888L158.608 191.566L158.249 189.614H163.065C163.167 190.025 163.27 190.898 163.321 191.926C163.475 194.751 163.475 198.964 163.424 200.094C163.424 200.094 163.475 200.556 163.577 201.121C163.782 202.251 163.936 203.895 163.68 203.947Z" fill="#FFB696"/>
<path d="M175.873 203.741C175.514 203.947 170.135 203.793 168.598 203.741C168.393 203.741 168.239 203.485 168.393 203.279C168.649 202.919 169.213 202.56 169.93 202.149C170.135 202.046 170.289 201.892 170.442 201.738C171.057 201.121 171.62 200.197 171.928 199.683L170.032 191.515L169.52 189.254L174.028 189.819C174.182 190.23 174.336 191.001 174.438 191.926C174.797 194.494 175.002 198.347 175.053 199.529C175.053 199.529 175.207 200.043 175.411 200.71C175.77 201.892 176.129 203.536 175.873 203.741Z" fill="#FFB696"/>
<path d="M163.321 191.926C160.862 192.08 158.608 191.515 158.608 191.515L158.25 189.562H163.065C163.219 189.973 163.27 190.847 163.321 191.926Z" fill="#D88E75"/>
<path d="M174.438 191.926C172.235 191.977 170.288 191.566 170.032 191.515L169.52 189.254L174.028 189.819C174.182 190.23 174.336 191.001 174.438 191.926Z" fill="#D88E75"/>
<path d="M175.36 189.46C174.182 189.973 173.004 190.179 171.928 190.282C170.084 190.436 168.649 190.128 168.649 190.128L163.014 165.828L164.243 189.665C163.168 190.333 161.682 190.539 160.35 190.487H160.299C159.428 190.487 158.659 190.384 158.147 190.333C157.635 190.282 157.379 190.179 157.379 190.179C157.379 190.179 152.665 170.452 153.434 163.517C154.202 156.581 155.842 154.681 155.842 154.681C158.249 154.064 160.401 153.704 162.143 153.602C165.37 153.345 167.266 153.653 167.266 153.653C170.954 157.712 170.852 163.722 170.852 163.722L175.36 189.46Z" fill="#313280"/>
<path d="M163.68 203.947C163.27 203.998 155.176 204.152 155.022 203.741C154.868 203.33 154.715 202.971 156.508 202.406C156.866 202.303 157.276 202.097 157.635 201.892C157.635 202.046 157.686 202.149 158.044 202.2C158.659 202.2 159.786 201.892 161.528 201.173C163.167 200.453 163.577 201.121 163.629 201.173C163.782 202.252 163.936 203.895 163.68 203.947Z" fill="#313280"/>
<path d="M175.924 203.741C175.565 203.947 170.186 203.793 168.649 203.741C168.393 203.741 168.291 203.484 168.393 203.279C168.649 202.919 169.213 202.56 169.981 202.149C170.186 202.046 170.34 201.892 170.494 201.738C170.647 201.789 170.852 201.84 171.262 201.738C172.236 201.532 172.594 200.299 174.08 200.299C174.848 200.299 175.207 200.505 175.412 200.71C175.77 201.892 176.18 203.536 175.924 203.741Z" fill="#313280"/>
<path d="M171.928 190.282C170.084 190.436 168.649 190.128 168.649 190.128L163.014 165.828L167.061 162.797C167.061 162.797 166.651 170.966 167.881 177.387C168.906 182.678 171.16 188.432 171.928 190.282Z" fill="#26295E"/>
<path d="M156.508 165.006C155.483 175.332 160.196 190.127 160.299 190.436H160.247L158.096 190.282C157.583 190.23 157.327 190.127 157.327 190.127C157.327 190.127 152.614 170.4 153.383 163.465C154.151 156.53 155.79 154.629 155.79 154.629C158.198 154.013 160.35 153.653 162.092 153.55C160.452 154.475 157.276 157.249 156.508 165.006Z" fill="#26295E"/>
<path d="M147.492 143.225L146.723 145.177C146.723 145.177 146.108 143.43 147.492 143.225Z" fill="#D88E75"/>
<path d="M160.042 146.923H166.651C166.651 146.923 166.754 148.054 163.885 148.054C161.067 148.054 160.042 146.923 160.042 146.923Z" fill="#7961D1"/>
<path d="M159.684 131.101C159.326 130.535 159.531 130.022 159.531 130.022C158.045 129.611 157.942 128.686 157.942 128.686L157.789 129.354C157.02 129.2 156.047 128.018 156.559 126.58C157.02 125.295 157.994 124.884 158.199 124.782C158.301 125.706 158.66 128.326 160.35 130.176C159.889 130.33 159.684 131.101 159.684 131.101Z" fill="#26295E"/>
<path d="M166.549 132.642C166.497 132.744 166.446 132.899 166.344 133.001C165.063 135.313 162.963 135.313 161.272 134.697C159.581 134.08 159.838 133.053 159.838 133.053C159.838 133.053 160.299 133.31 160.76 132.59C161.016 132.179 161.17 131.46 161.067 130.895C161.579 131.306 162.143 131.614 162.809 131.82C164.551 132.385 165.729 132.59 166.549 132.642Z" fill="#26295E"/>
<path d="M169.315 127.607C169.059 128.737 168.188 129.148 167.317 128.943C166.702 128.789 166.241 128.429 165.934 128.07C165.678 127.761 165.473 127.402 165.37 127.093C165.37 127.042 165.319 126.991 165.319 126.939C165.217 126.528 165.166 126.22 165.166 125.963V125.912C165.166 125.809 165.166 125.758 165.166 125.758C165.883 127.504 168.291 127.607 169.315 127.607Z" fill="#26295E"/>
</g>
<defs>
<clipPath id="clip0_97_54">
<rect width="227" height="204" fill="white" transform="translate(0 -0.00195312)"/>
</clipPath>
</defs>
</svg>
