<svg width="200" height="134" viewBox="0 0 200 134" fill="none" xmlns="http://www.w3.org/2000/svg">
<g clip-path="url(#clip0_176_57)">
<path d="M101.324 38.2573C99.5403 35.3079 97.4272 32.1588 94.1178 31.1957C90.2854 30.0804 86.3485 32.296 83.0091 34.4823C73.0225 41.0209 63.4051 48.1068 54.2011 55.7077L54.2112 55.8222C61.3768 55.3281 68.5425 54.8339 75.7081 54.3397C80.8853 53.9827 86.2404 53.5764 90.8156 51.1273C92.5517 50.198 94.2441 48.9565 96.2114 48.87C98.6556 48.7626 100.787 50.4696 102.462 52.2531C112.369 62.8028 115.236 78.936 126.351 88.2048C119.342 70.9201 110.973 54.2186 101.324 38.2573Z" fill="#F2F2F2"/>
<path d="M162.221 127.739C161.126 126.355 160.678 126.031 159.598 124.635C150.798 113.254 142.528 101.489 134.786 89.3399C129.527 81.0884 124.529 72.6785 119.792 64.1101C117.537 60.0366 115.343 55.9311 113.212 51.7937C111.557 48.5856 109.94 45.3584 108.36 42.1119C107.908 41.1847 107.469 40.2532 107.032 39.3195C106.002 37.124 104.992 34.9178 103.907 32.752C102.671 30.2836 101.166 27.6959 98.8956 26.0375C97.8625 25.2518 96.6271 24.7764 95.3337 24.6669C93.4856 24.5475 91.7804 25.3106 90.1774 26.1441C78.4493 32.2596 67.4694 39.9271 57.5383 48.6517C47.5817 57.396 38.6821 67.2749 31.021 78.0871C30.7866 78.4217 30.2323 78.102 30.4689 77.7652C31.4005 76.4479 32.3505 75.1447 33.3189 73.8558C45.361 57.8402 60.1263 44.0677 76.9401 33.1677C79.7688 31.3345 82.6508 29.5873 85.5859 27.9261C87.0652 27.0884 88.551 26.2613 90.0623 25.4854C91.5438 24.7244 93.1169 24.0402 94.8094 24.0146C100.569 23.9251 103.551 30.4478 105.6 34.8368C106.243 36.218 106.895 37.5951 107.554 38.9678C110.046 44.1796 112.634 49.3438 115.318 54.4603C116.974 57.6194 118.666 60.76 120.395 63.882C125.775 73.6043 131.494 83.1298 137.55 92.4584C145.574 104.815 153.533 115.731 162.673 127.287C162.925 127.606 162.475 128.063 162.221 127.739Z" fill="#E4E4E4"/>
<path d="M56.969 45.4309C56.6344 45.0579 56.3019 44.6849 55.9651 44.3118C53.3091 41.3745 50.4592 38.4712 46.8119 36.7872C45.0729 35.9589 43.1745 35.5189 41.2484 35.4976C39.2575 35.504 37.3114 36.0262 35.4719 36.7574C34.6021 37.1049 33.7516 37.4992 32.9139 37.9191C31.9568 38.4009 31.0167 38.9146 30.081 39.4326C28.3245 40.4046 26.5908 41.4192 24.8799 42.4765C21.4757 44.5804 18.1781 46.8449 14.9871 49.2699C13.3329 50.5276 11.7128 51.8264 10.1269 53.1665C8.65189 54.4114 7.20667 55.6896 5.79129 57.0013C5.48862 57.2805 5.03669 56.8286 5.33936 56.5494C5.71239 56.2019 6.08969 55.8566 6.46699 55.5156C7.53279 54.5521 8.61567 53.607 9.71561 52.6805C11.7214 50.988 13.7791 49.3609 15.8887 47.7991C19.1693 45.3691 22.5628 43.1039 26.0693 41.0036C27.8215 39.9548 29.5978 38.9501 31.3983 37.9895C31.9419 37.6996 32.4919 37.4161 33.0482 37.1475C34.3105 36.5107 35.6222 35.9768 36.9703 35.5509C38.8801 34.9331 40.9006 34.7346 42.8941 34.969C44.8188 35.2489 46.6732 35.8905 48.3595 36.8597C51.9406 38.8613 54.718 41.9564 57.421 44.9769C57.6939 45.2838 57.244 45.7379 56.969 45.4309Z" fill="#E4E4E4"/>
<path d="M130.344 75.8697L138.925 72.7311L143.186 71.1728C144.573 70.6653 145.958 70.0875 147.392 69.7241C148.639 69.368 149.962 69.3849 151.199 69.7726C152.302 70.1809 153.312 70.8069 154.169 71.6134C155.044 72.4191 155.858 73.2885 156.604 74.2145C157.532 75.3293 158.446 76.4557 159.364 77.5784C163.153 82.212 166.917 86.8656 170.656 91.5394C174.395 96.2131 178.109 100.907 181.798 105.62C185.497 110.345 189.169 115.09 192.817 119.854C193.263 120.438 193.71 121.022 194.156 121.606C194.402 121.929 194.958 121.61 194.708 121.283C191.034 116.471 187.334 111.678 183.609 106.905C179.874 102.121 176.114 97.3568 172.327 92.613C168.541 87.8693 164.73 83.1462 160.892 78.4437C159.936 77.2721 158.979 76.1019 158.02 74.9329C157.211 73.9469 156.411 72.9502 155.523 72.0324C153.894 70.3477 151.859 68.8589 149.423 68.8185C147.991 68.7948 146.605 69.2493 145.274 69.7307C143.839 70.2497 142.408 70.7784 140.975 71.3024L132.334 74.4629L130.174 75.2531C129.791 75.3933 129.956 76.0115 130.344 75.8697Z" fill="#E4E4E4"/>
<path d="M45.6827 40.4833C41.3219 38.2421 35.7374 38.6811 31.7302 41.4811C39.3736 42.7998 46.9335 44.5642 54.371 46.7654C51.2825 44.9554 48.8666 42.1197 45.6827 40.4833Z" fill="#F2F2F2"/>
<path d="M31.6873 41.4734L30.8478 42.1558C31.1317 41.9169 31.4269 41.693 31.7302 41.4811C31.7159 41.4786 31.7016 41.4759 31.6873 41.4734Z" fill="#F2F2F2"/>
<path d="M153.846 75.901C153.001 74.8728 152.088 73.7962 150.824 73.3785L149.645 73.4251C158.624 89.2921 170.752 103.157 185.283 114.168C174.804 101.412 164.325 88.6566 153.846 75.901Z" fill="#F2F2F2"/>
<path d="M80.4928 67.4188C81.0387 69.4021 82.2685 71.1284 83.9647 72.2922C84.6204 72.7387 85.3962 73.167 85.6206 73.9279C85.7386 74.413 85.6659 74.9249 85.4174 75.3579C85.1694 75.7854 84.8677 76.1793 84.5196 76.5301L84.4878 76.6492C82.8605 75.6848 81.3124 74.465 80.4135 72.8007C79.5146 71.1363 79.3891 68.955 80.4928 67.4188Z" fill="#F2F2F2"/>
<path d="M134.671 114.621C135.217 116.604 136.446 118.33 138.142 119.494C138.798 119.941 139.574 120.369 139.798 121.13C139.916 121.615 139.844 122.127 139.595 122.56C139.347 122.987 139.046 123.381 138.697 123.732L138.666 123.851C137.038 122.887 135.49 121.667 134.591 120.003C133.692 118.338 133.567 116.157 134.671 114.621Z" fill="#F2F2F2"/>
<path d="M26.5476 111.366C27.0935 113.349 28.3233 115.075 30.0195 116.239C30.6752 116.685 31.451 117.114 31.6754 117.875C31.7934 118.36 31.7207 118.872 31.4722 119.305C31.2243 119.732 30.9225 120.126 30.5744 120.477L30.5426 120.596C28.9153 119.632 27.3672 118.412 26.4683 116.747C25.5694 115.083 25.4439 112.902 26.5476 111.366Z" fill="#F2F2F2"/>
<path d="M150.97 24.6485C157.52 24.6485 162.829 19.3392 162.829 12.7898C162.829 6.24045 157.52 0.931152 150.97 0.931152C144.421 0.931152 139.112 6.24045 139.112 12.7898C139.112 19.3392 144.421 24.6485 150.97 24.6485Z" fill="#9082C0"/>
<path d="M172.371 3.69122C166.623 2.91438 160.062 6.02079 158.572 11.6257C158.197 10.6292 157.515 9.77774 156.624 9.19446C155.733 8.61119 154.679 8.32626 153.616 8.38083C152.552 8.4354 151.534 8.82666 150.707 9.49807C149.88 10.1695 149.289 11.0863 149.017 12.116L149.675 12.5873C161.991 15.2507 174.74 15.193 187.032 12.4184C183.034 8.21695 178.118 4.46805 172.371 3.69122Z" fill="#F0F0F0"/>
<path d="M147.723 19.5027C141.976 18.7259 135.415 21.8323 133.925 27.4372C133.55 26.4407 132.867 25.5893 131.976 25.006C131.085 24.4227 130.032 24.1378 128.968 24.1924C127.905 24.2469 126.886 24.6382 126.06 25.3096C125.233 25.981 124.641 26.8978 124.37 27.9276L125.028 28.3988C137.344 31.0622 150.093 31.0045 162.385 28.2299C158.387 24.0285 153.47 20.2796 147.723 19.5027Z" fill="#F0F0F0"/>
<path d="M197.885 22.4925C197.861 22.4926 197.837 22.4889 197.814 22.4816C136.334 3.0385 82.1474 5.58103 47.5165 11.1377C42.8036 11.8937 38.0781 12.7668 33.4713 13.7329C32.2951 13.9793 31.075 14.2434 29.8447 14.5184C28.3754 14.8456 26.9257 15.1826 25.5355 15.5196C24.9352 15.6617 24.3465 15.805 23.7696 15.9494C22.8957 16.1651 22.009 16.3899 21.0584 16.637C19.9963 16.9108 18.9171 17.1981 17.8502 17.4908C17.8463 17.4922 17.8424 17.4933 17.8383 17.4942L17.8384 17.4944C16.6334 17.8234 15.4346 18.162 14.2754 18.5001C13.648 18.6813 13.0422 18.86 12.4619 19.0365C12.3971 19.0544 12.3396 19.0717 12.2814 19.0894L12.1567 19.1273C12.0845 19.1493 12.0132 19.1709 11.9419 19.1913L11.9374 19.1927L11.9375 19.1929L11.7488 19.2515C11.5238 19.3196 11.3042 19.3862 11.0882 19.4525C5.38099 21.2118 2.24353 22.4635 2.21253 22.4757C2.18419 22.4871 2.15389 22.4928 2.12335 22.4924C2.09282 22.4921 2.06265 22.4857 2.03458 22.4737C2.0065 22.4617 1.98107 22.4443 1.95972 22.4224C1.93838 22.4006 1.92155 22.3748 1.91018 22.3464C1.89882 22.3181 1.89316 22.2878 1.89351 22.2572C1.89386 22.2267 1.90022 22.1965 1.91223 22.1685C1.92424 22.1404 1.94166 22.1149 1.96349 22.0936C1.98533 22.0723 2.01116 22.0554 2.0395 22.0441C2.07073 22.0318 5.22352 20.7738 10.9515 19.0079C11.1683 18.9413 11.3884 18.8748 11.6141 18.8065L11.7894 18.752C11.7955 18.7497 11.8015 18.7479 11.8076 18.7461C11.8786 18.7258 11.9494 18.7043 12.0214 18.6825L12.1463 18.6446C12.2085 18.6257 12.2698 18.6071 12.3326 18.5898C12.9089 18.4145 13.5168 18.2354 14.1458 18.0535C15.3054 17.7151 16.5053 17.3766 17.7113 17.0471C17.715 17.0457 17.7189 17.0448 17.7226 17.0437C18.7933 16.7501 19.8764 16.4615 20.942 16.1867C21.894 15.9394 22.7824 15.7142 23.6578 15.498C24.2371 15.3538 24.8269 15.2102 25.4271 15.0672C26.8188 14.7298 28.2715 14.3924 29.7434 14.0645C30.9756 13.7893 32.1978 13.5245 33.3759 13.2779C37.9899 12.3101 42.7228 11.4357 47.4428 10.6786C82.1233 5.11395 136.388 2.56732 197.955 22.0384C198.008 22.0551 198.053 22.0902 198.082 22.1373C198.111 22.1845 198.123 22.2406 198.114 22.2954C198.106 22.3503 198.078 22.4003 198.036 22.4365C197.994 22.4726 197.94 22.4925 197.885 22.4925Z" fill="#CCCCCC"/>
<path d="M61.1561 98.5534C61.0756 98.318 60.9401 98.1052 60.7608 97.9326C60.6946 97.8712 60.623 97.816 60.5469 97.7675C59.94 97.3629 59.0332 97.2722 58.4565 97.7675C58.3984 97.8179 58.3447 97.8731 58.2961 97.9326C58.124 98.1442 57.9473 98.3511 57.7659 98.5534C57.4683 98.8929 57.1637 99.2208 56.8451 99.5393C56.7544 99.6277 56.6638 99.7184 56.5707 99.8067C56.5173 99.8602 56.4638 99.9114 56.4103 99.9625C56.2057 100.158 55.9964 100.346 55.7848 100.532C55.6732 100.632 55.5616 100.73 55.4477 100.825C55.2779 100.967 55.1082 101.109 54.9361 101.246C54.9198 101.258 54.9036 101.269 54.8873 101.283C54.8826 101.286 54.8803 101.29 54.8757 101.293C54.8733 101.293 54.871 101.293 54.8687 101.297C54.8624 101.3 54.8568 101.304 54.8524 101.309C54.8012 101.344 54.7664 101.367 54.7408 101.388C54.7501 101.383 54.7594 101.376 54.7687 101.372C54.7268 101.404 54.6827 101.437 54.6408 101.469C54.2339 101.769 53.8177 102.058 53.3922 102.327C52.3394 103.001 51.2336 103.588 50.0857 104.083C50.009 104.113 49.9299 104.146 49.8508 104.176C46.8454 105.407 43.5852 105.888 40.3523 105.576C40.0221 105.55 39.6919 105.515 39.3617 105.471C38.9804 105.415 38.6014 105.348 38.2247 105.271C36.7907 104.985 35.3875 104.561 34.0346 104.006C32.3424 103.231 30.7329 102.287 29.2307 101.188C28.9982 101.023 28.7634 100.858 28.5285 100.697C28.7959 100.042 29.0587 99.3859 29.3144 98.7255C29.4423 98.4069 29.5656 98.0884 29.6865 97.7675C30.6375 95.2958 31.5304 92.8008 32.3861 90.2966C33.251 87.7597 34.0672 85.2082 34.8345 82.6419C34.9136 82.3815 34.9903 82.1211 35.0647 81.8606C35.467 80.505 35.853 79.1463 36.2227 77.7845C36.2576 77.652 36.2948 77.5218 36.3273 77.3892C36.4343 76.9986 36.5389 76.6079 36.6412 76.2173C36.8738 75.336 36.3482 74.2827 35.4228 74.0711C34.9772 73.9569 34.5047 74.0201 34.1048 74.2473C33.7049 74.4746 33.4088 74.8483 33.279 75.2895C33.179 75.6662 33.079 76.0406 32.9767 76.4173C32.4861 78.2379 31.9699 80.0524 31.4281 81.8606C31.349 82.1211 31.27 82.3815 31.1909 82.6419C29.9957 86.5808 28.6835 90.4802 27.2543 94.3401C27.0822 94.8075 26.9078 95.2733 26.7311 95.7376C26.6451 95.9655 26.559 96.1933 26.4707 96.4212C26.3009 96.87 26.1266 97.3187 25.9522 97.7675C25.8522 98.0303 25.7499 98.293 25.6476 98.5534C25.5801 98.7185 25.515 98.8836 25.4499 99.0464C24.787 98.8083 24.1001 98.643 23.4014 98.5534L23.2898 98.5395C22.7481 98.4743 22.2003 98.479 21.6598 98.5534C20.8509 98.6478 20.0725 98.9188 19.3798 99.3471C18.6872 99.7754 18.097 100.351 17.6511 101.032C16.542 102.778 16.5559 105.276 18.1115 106.759C19.7136 108.287 22.1388 108.275 24.0246 107.32C25.0239 106.779 25.8665 105.989 26.4707 105.027C26.7022 104.678 26.9148 104.317 27.1078 103.946C27.1566 103.978 27.2055 104.011 27.2543 104.046C27.4403 104.176 27.6263 104.308 27.81 104.439C28.8803 105.214 30.0082 105.907 31.1839 106.51C33.7119 107.767 36.4331 108.59 39.2339 108.945C39.2966 108.952 39.3571 108.961 39.4199 108.968C39.7291 109.008 40.0407 109.038 40.3523 109.063C44.8219 109.4 49.2969 108.486 53.2759 106.422C53.6131 106.248 53.9471 106.065 54.2781 105.873C54.7919 105.576 55.2942 105.259 55.7848 104.925C56.0522 104.743 56.3126 104.559 56.5707 104.366C57.6986 103.536 58.7499 102.606 59.7121 101.588C60.0772 101.204 60.4267 100.808 60.7608 100.4C61.0767 100.066 61.2588 99.6269 61.2724 99.1673C61.2705 98.9574 61.2312 98.7495 61.1561 98.5534ZM22.6527 104.092C22.7015 104.057 22.7503 104.02 22.7968 103.983C22.7829 104.018 22.7154 104.057 22.6527 104.092ZM23.3991 103.341C23.3456 103.402 23.2968 103.462 23.2433 103.522C23.0806 103.705 22.9058 103.875 22.7201 104.034C22.6945 104.057 22.6666 104.08 22.6387 104.101C22.6384 104.101 22.6381 104.101 22.6378 104.102C22.6375 104.102 22.6373 104.102 22.6371 104.102C22.6368 104.102 22.6367 104.103 22.6366 104.103C22.6364 104.103 22.6364 104.103 22.6364 104.104C22.6028 104.119 22.5702 104.136 22.5387 104.155C22.4387 104.215 22.3364 104.271 22.2318 104.322C22.0269 104.398 21.8162 104.456 21.6017 104.497C21.4368 104.509 21.2714 104.51 21.1064 104.501H21.1017C20.9879 104.476 20.8753 104.445 20.7646 104.408C20.7088 104.38 20.6553 104.348 20.6018 104.315C20.5809 104.297 20.5623 104.278 20.5507 104.267C20.5279 104.246 20.507 104.223 20.4879 104.199C20.4879 104.199 20.4878 104.198 20.4877 104.198C20.4876 104.198 20.4875 104.198 20.4872 104.197C20.487 104.197 20.4868 104.197 20.4865 104.197C20.4862 104.197 20.4859 104.197 20.4856 104.197C20.46 104.15 20.4321 104.104 20.4065 104.057C20.4052 104.056 20.4044 104.054 20.4042 104.053C20.3856 103.994 20.3693 103.934 20.3554 103.874C20.3503 103.767 20.3511 103.661 20.3577 103.555C20.3889 103.406 20.4309 103.26 20.4832 103.118C20.5303 103.017 20.5839 102.919 20.6437 102.825C20.6483 102.816 20.6716 102.778 20.6972 102.737C20.6995 102.734 20.6995 102.734 20.6995 102.732C20.7344 102.692 20.7693 102.65 20.8065 102.613C20.8692 102.544 20.9367 102.483 21.0041 102.42C21.1352 102.334 21.2711 102.256 21.411 102.185C21.633 102.107 21.8608 102.045 22.0923 102.002C22.4337 101.975 22.7769 101.978 23.1177 102.011C23.4406 102.067 23.7591 102.146 24.0711 102.246C23.882 102.613 23.6668 102.966 23.427 103.302C23.4177 103.315 23.4084 103.329 23.3991 103.341ZM20.8134 102.576C20.7929 102.609 20.7687 102.639 20.7413 102.667C20.7598 102.632 20.7842 102.602 20.8134 102.576Z" fill="#3F3D56"/>
<path d="M54.1665 74.8059C54.1455 75.5361 54.1246 76.2662 54.1037 76.9963C54.0595 78.617 54.0138 80.2384 53.9665 81.8607C53.9177 83.686 53.8665 85.5105 53.813 87.3343C53.7874 88.276 53.7611 89.2177 53.734 90.1594C53.6619 92.6962 53.5906 95.2323 53.5201 97.7675C53.5131 98.0303 53.5038 98.2907 53.4968 98.5535C53.4619 99.8114 53.427 101.069 53.3922 102.327C53.3526 103.692 53.3139 105.057 53.2759 106.422C53.248 107.445 53.2193 108.469 53.1899 109.494C52.9806 116.918 52.7713 124.343 52.5621 131.767C52.5532 132.227 52.3666 132.665 52.0415 132.99C51.7163 133.316 51.2779 133.502 50.8181 133.511C50.3568 133.507 49.9154 133.322 49.5891 132.996C49.2629 132.67 49.0779 132.228 49.0742 131.767C49.1905 127.591 49.3083 123.415 49.4277 119.239C49.5323 115.463 49.6385 111.686 49.7462 107.91C49.7811 106.666 49.816 105.421 49.8508 104.176C49.9043 102.302 49.957 100.428 50.009 98.5535C50.0159 98.2907 50.0252 98.0303 50.0322 97.7675C50.0369 97.5373 50.0438 97.3095 50.0508 97.0793C50.1531 93.4403 50.2554 89.8005 50.3577 86.16C50.3996 84.7277 50.4399 83.2946 50.4787 81.8607C50.5252 80.226 50.5717 78.5922 50.6182 76.9591C50.6391 76.2406 50.6577 75.5244 50.6786 74.8059C50.6875 74.3462 50.874 73.9077 51.1992 73.5826C51.5243 73.2574 51.9628 73.0709 52.4225 73.062C52.8839 73.0657 53.3253 73.2507 53.6516 73.5769C53.9778 73.9032 54.1627 74.3446 54.1665 74.8059Z" fill="#3F3D56"/>
<path d="M149.833 75.2899C148.004 82.2144 145.819 89.0396 143.285 95.7382C142.586 97.586 141.87 99.43 141.106 101.252L141.281 100.835C140.94 101.703 140.504 102.53 139.982 103.303C139.946 103.352 139.91 103.402 139.873 103.451C140.054 103.22 140.088 103.174 139.976 103.314C139.917 103.384 139.859 103.454 139.798 103.522C139.635 103.704 139.46 103.875 139.275 104.034C139.228 104.074 139.181 104.113 139.132 104.151L139.351 103.982C139.325 104.042 139.148 104.121 139.092 104.155C138.913 104.263 138.726 104.358 138.533 104.438L138.95 104.262C138.633 104.39 138.303 104.48 137.966 104.532L138.429 104.47C138.098 104.516 137.762 104.519 137.43 104.481L137.894 104.543C137.622 104.505 137.356 104.434 137.102 104.33L137.519 104.505C137.383 104.446 137.253 104.377 137.128 104.297C137.065 104.256 136.871 104.109 137.125 104.303C137.388 104.504 137.159 104.32 137.104 104.267C137.059 104.222 137.018 104.174 136.974 104.128C136.769 103.918 137.206 104.49 137.066 104.244C136.992 104.121 136.924 103.994 136.862 103.864L137.038 104.28C136.958 104.082 136.901 103.875 136.869 103.664L136.931 104.127C136.898 103.864 136.898 103.598 136.93 103.335L136.868 103.799C136.911 103.506 136.988 103.218 137.099 102.943L136.924 103.36C137.001 103.175 137.093 102.996 137.198 102.826C137.246 102.737 137.303 102.654 137.367 102.576C137.378 102.58 137.072 102.928 137.235 102.752C137.277 102.706 137.317 102.658 137.36 102.612C137.429 102.539 137.502 102.473 137.575 102.404C137.818 102.172 137.235 102.628 137.515 102.445C137.719 102.312 137.932 102.195 138.155 102.097L137.738 102.272C138.11 102.12 138.501 102.015 138.9 101.961L138.436 102.023C138.935 101.966 139.44 101.972 139.938 102.041L139.475 101.979C140.105 102.074 140.722 102.248 141.31 102.495L140.893 102.319C142.146 102.857 143.256 103.656 144.364 104.439C145.434 105.214 146.562 105.906 147.737 106.51C150.265 107.767 152.987 108.59 155.788 108.946C159.805 109.438 163.881 108.913 167.642 107.42C171.404 105.927 174.73 103.513 177.316 100.4C177.631 100.065 177.813 99.6265 177.827 99.1668C177.823 98.7049 177.64 98.2626 177.316 97.9336C176.676 97.3463 175.467 97.1805 174.85 97.9336C174.264 98.6485 173.634 99.3263 172.965 99.9628C172.652 100.26 172.331 100.547 172.001 100.825C171.813 100.984 171.623 101.14 171.429 101.293C171.338 101.365 171.053 101.558 171.49 101.247C171.39 101.318 171.294 101.396 171.195 101.469C169.731 102.549 168.144 103.451 166.467 104.158L166.884 103.982C165.085 104.737 163.196 105.255 161.264 105.522L161.727 105.46C159.739 105.722 157.726 105.719 155.739 105.451L156.202 105.514C154.216 105.241 152.273 104.712 150.423 103.939L150.839 104.115C149.053 103.325 147.359 102.343 145.785 101.187C144.966 100.581 144.102 100.037 143.201 99.5611C142.151 99.0249 141.014 98.6794 139.844 98.5406C137.649 98.2824 135.413 99.1372 134.206 101.033C133.096 102.778 133.11 105.275 134.665 106.759C136.267 108.288 138.692 108.275 140.579 107.319C142.397 106.398 143.489 104.485 144.257 102.682C145.985 98.623 147.514 94.4705 148.94 90.2969C150.35 86.1677 151.628 81.9968 152.776 77.784C152.918 77.2623 153.058 76.74 153.196 76.2171C153.429 75.3362 152.903 74.2825 151.978 74.0719C151.532 73.9572 151.059 74.0201 150.659 74.2473C150.259 74.4746 149.963 74.8484 149.833 75.2899Z" fill="#3F3D56"/>
<path d="M167.233 74.8058L166.605 97.0799L165.981 119.238L165.628 131.767C165.632 132.228 165.817 132.67 166.143 132.996C166.469 133.322 166.91 133.507 167.372 133.511C167.832 133.502 168.27 133.316 168.595 132.99C168.92 132.665 169.107 132.227 169.116 131.767L169.743 109.493L170.368 87.335L170.721 74.8058C170.717 74.3445 170.532 73.9032 170.206 73.577C169.88 73.2508 169.438 73.0658 168.977 73.0619C168.517 73.0708 168.079 73.2574 167.754 73.5825C167.429 73.9076 167.242 74.3461 167.233 74.8058Z" fill="#3F3D56"/>
<path opacity="0.2" d="M106.871 125.548H107.412V100.891H120.045V100.351H107.412V89.9469H117.168C117.025 89.765 116.878 89.5854 116.726 89.4081H107.412V82.5364C107.233 82.4601 107.053 82.3865 106.871 82.317V89.4081H96.2555V80.6036C96.0736 80.612 95.8945 80.6245 95.714 80.6397V89.4082H87.2455V82.8391C87.0636 82.9197 86.8845 83.0044 86.7068 83.0932V89.4081H79.5879V89.9469H86.7068V100.351H79.5879V100.891H86.7068V125.548H87.2455V100.891C88.3577 100.891 89.459 101.11 90.4865 101.535C91.5141 101.961 92.4477 102.585 93.2341 103.371C94.0206 104.157 94.6443 105.091 95.0698 106.119C95.4953 107.146 95.7142 108.247 95.714 109.36V125.548H96.2555V100.891H106.871V125.548ZM87.2455 100.351V89.9469H95.714V100.351H87.2455ZM96.2555 100.351V89.9469H96.468C97.8342 89.947 99.187 90.2162 100.449 90.7391C101.711 91.262 102.858 92.0284 103.824 92.9945C104.79 93.9606 105.556 95.1075 106.079 96.3697C106.602 97.632 106.871 98.9848 106.871 100.351H96.2555Z" fill="black"/>
<path d="M103.564 118.155C102.882 121.196 101.249 123.941 98.9015 125.991C98.7294 126.14 98.5574 126.284 98.3783 126.426C97.9435 126.465 97.5118 126.506 97.0832 126.547C96.7274 126.579 96.3763 126.614 96.0275 126.647L95.9647 126.654L95.9206 126.272L95.7438 124.728C95.0583 123.609 94.6334 122.35 94.5005 121.044C94.3677 119.739 94.5304 118.42 94.9765 117.185C95.5904 115.53 96.7018 114.067 97.7947 112.616C99.3038 110.612 100.771 108.631 100.824 106.187C101.567 107.137 102.184 108.179 102.661 109.287C102.211 109.499 101.807 109.796 101.471 110.163C101.376 110.268 101.28 110.414 101.345 110.54C101.401 110.647 101.541 110.672 101.662 110.686C101.952 110.717 102.245 110.747 102.536 110.777C102.768 110.803 103.001 110.826 103.233 110.852C103.515 111.775 103.705 112.723 103.803 113.684C103.96 115.177 103.879 116.687 103.564 118.155Z" fill="#3F3D56"/>
<path d="M111.283 112.061C109.911 113.058 109.109 114.493 108.486 116.074C107.847 116.278 107.273 116.645 106.819 117.139C106.724 117.244 106.628 117.39 106.693 117.516C106.749 117.623 106.889 117.648 107.01 117.662C107.3 117.692 107.593 117.723 107.884 117.753C107.261 119.622 106.689 121.557 105.587 123.136C104.854 124.178 103.898 125.045 102.789 125.673C102.487 125.845 102.175 125.999 101.855 126.135C100.673 126.226 99.5146 126.323 98.3783 126.426C97.9435 126.465 97.5118 126.506 97.0831 126.547C96.7274 126.579 96.3763 126.614 96.0275 126.647C96.0252 126.519 96.0252 126.391 96.0275 126.263C96.1011 122.856 97.3543 119.581 99.5735 116.995C99.6781 116.874 99.7851 116.755 99.8944 116.637C101.019 115.436 102.341 114.437 103.803 113.684C106.107 112.486 108.69 111.925 111.283 112.061Z" fill="#9082C0"/>
<path d="M97.4854 125.354L97.218 126.145L97.0832 126.547C96.7274 126.579 96.3763 126.614 96.0275 126.647L95.9647 126.654C95.5787 126.693 95.1951 126.733 94.8114 126.772C94.7114 126.656 94.6114 126.538 94.5138 126.417C92.0867 123.478 90.9217 119.697 91.2733 115.902C91.6249 112.107 93.4646 108.605 96.3902 106.162C96.0833 107.768 96.4414 109.308 97.0297 110.835C96.9669 110.861 96.9064 110.886 96.8483 110.914C96.3982 111.126 95.9938 111.424 95.6578 111.791C95.5625 111.896 95.4671 112.042 95.5322 112.168C95.588 112.275 95.7276 112.3 95.8485 112.314C96.1391 112.344 96.4321 112.375 96.7227 112.405C96.9553 112.43 97.1878 112.454 97.4203 112.479C97.5296 112.491 97.6389 112.503 97.7482 112.514C97.7644 112.549 97.7784 112.582 97.7947 112.616C98.4574 114.053 99.1712 115.497 99.5735 116.995C99.6743 117.371 99.7535 117.752 99.8106 118.137C99.9897 119.437 99.8737 120.761 99.4711 122.01C99.0686 123.26 98.3899 124.403 97.4854 125.354Z" fill="#9082C0"/>
<path d="M120.891 91.629C118.889 87.7245 115.788 84.4392 112.14 82.025C108.481 79.6141 104.283 78.1459 99.9184 77.7513C99.3463 77.6993 98.7728 77.6688 98.1979 77.6599C97.5186 77.6498 87.3005 80.5971 83.8775 83.0038C80.4564 85.3812 77.6422 88.5295 75.6618 92.1947C73.6849 95.88 72.7126 100.021 72.8424 104.201C73.0118 108.406 74.1839 112.51 76.2611 116.17C78.3098 119.818 81.2189 122.911 84.7352 125.179C88.3016 127.455 91.8841 133.489 96.0949 133.702C100.337 133.916 105.176 128.224 109.045 126.496C112.915 124.754 116.26 122.028 118.747 118.589C121.165 115.22 122.728 111.315 123.305 107.208C123.903 103.003 123.624 98.6668 122.188 94.648C121.82 93.6153 121.386 92.607 120.891 91.629C120.477 90.814 119.264 90.5139 118.505 91.0034C118.114 91.2443 117.83 91.6267 117.714 92.071C117.597 92.5154 117.656 92.9876 117.879 93.3894C118.122 93.8681 118.348 94.3546 118.557 94.8491L118.381 94.4325C119.172 96.3334 119.709 98.3299 119.98 100.371L119.918 99.9071C120.206 102.121 120.201 104.364 119.902 106.576L119.965 106.113C119.663 108.325 119.073 110.489 118.208 112.548L118.384 112.131C117.939 113.182 117.421 114.199 116.833 115.177C116.534 115.671 116.218 116.153 115.884 116.623C115.737 116.83 115.585 117.033 115.433 117.235C115.234 117.499 115.704 116.89 115.499 117.149C115.464 117.193 115.429 117.238 115.393 117.282C115.288 117.414 115.181 117.545 115.072 117.674C114.347 118.539 113.556 119.346 112.706 120.089C112.494 120.273 112.279 120.454 112.06 120.631C111.951 120.719 111.843 120.81 111.73 120.892C111.734 120.889 112.097 120.613 111.882 120.773C111.815 120.824 111.748 120.875 111.68 120.925C111.229 121.259 110.766 121.576 110.291 121.876C109.197 122.565 108.05 123.165 106.86 123.67L107.276 123.494C105.224 124.358 103.066 124.949 100.859 125.25L101.323 125.188C99.1174 125.486 96.8821 125.49 94.6754 125.199L95.139 125.262C93.1335 124.992 91.1718 124.462 89.3038 123.684L89.7204 123.86C88.6384 123.403 87.5952 122.86 86.6009 122.234C86.1088 121.924 85.6295 121.595 85.163 121.247C85.0965 121.197 85.0305 121.147 84.9642 121.097C84.7513 120.936 85.1171 121.215 85.1201 121.217C84.9963 121.128 84.8772 121.033 84.7631 120.932C84.5378 120.749 84.316 120.561 84.0978 120.369C83.2245 119.6 82.409 118.768 81.6579 117.879C81.4699 117.657 81.2858 117.431 81.1059 117.202C81.0279 117.103 80.8858 116.902 81.1999 117.325C81.1585 117.27 81.1157 117.215 81.0739 117.16C80.9737 117.027 80.8748 116.893 80.7773 116.758C80.4358 116.285 80.1112 115.801 79.8035 115.306C79.1082 114.183 78.5014 113.009 77.9886 111.793L78.1644 112.209C77.3253 110.213 76.7514 108.115 76.4576 105.969L76.5199 106.433C76.2548 104.455 76.251 102.45 76.5086 100.472L76.4463 100.935C76.7105 99.0189 77.226 97.1457 77.9797 95.3642L77.8039 95.7807C78.2781 94.6654 78.8374 93.5883 79.477 92.5589C79.7972 92.0437 80.1365 91.5411 80.4949 91.051C80.5763 90.9397 80.6587 90.829 80.7419 90.719C80.8173 90.6195 81.0244 90.3718 80.6709 90.8093C80.7056 90.7664 80.7389 90.7223 80.7731 90.679C80.9698 90.4298 81.1713 90.1845 81.3776 89.9431C82.1583 89.0291 83.004 88.1727 83.9082 87.3805C84.1367 87.1803 84.3688 86.9843 84.6045 86.7924C84.7116 86.7053 84.8194 86.619 84.9279 86.5337C84.9713 86.4996 85.0153 86.4661 85.0585 86.4317C84.5941 86.8013 84.9295 86.5323 85.0349 86.4533C85.5207 86.0893 86.0195 85.7435 86.5313 85.4159C87.6689 84.6884 88.8657 84.0577 90.109 83.5307L89.6924 83.7065C91.4968 82.9488 99.4911 81.1605 100.945 81.3557L100.481 81.2934C102.619 81.5918 104.707 82.1689 106.694 83.01L106.278 82.8342C107.285 83.2618 108.263 83.7533 109.208 84.3059C109.679 84.5824 110.142 84.8741 110.595 85.1808C110.81 85.3259 111.022 85.4744 111.232 85.626C111.337 85.7019 111.441 85.7785 111.545 85.856C111.603 85.899 111.66 85.9426 111.717 85.9857C111.959 86.1669 111.384 85.7234 111.638 85.9237C112.486 86.5898 113.291 87.3084 114.049 88.0753C114.421 88.4543 114.78 88.8454 115.127 89.2484C115.304 89.4552 115.479 89.6651 115.649 89.878C115.734 89.9838 116.022 90.3665 115.669 89.8977C115.755 90.0123 115.843 90.1261 115.928 90.2415C116.663 91.2361 117.315 92.2889 117.879 93.3894C118.296 94.2027 119.504 94.506 120.265 94.0151C120.656 93.7743 120.94 93.3919 121.056 92.9475C121.173 92.5031 121.114 92.0308 120.891 91.629Z" fill="#3F3D56"/>
<path d="M100.571 120.089C100.391 120.097 100.212 120.05 100.06 119.953C99.9078 119.857 99.7889 119.716 99.7194 119.55C99.6498 119.384 99.6331 119.2 99.6714 119.024C99.7098 118.848 99.8013 118.688 99.9336 118.565C99.9558 118.477 99.9717 118.414 99.9938 118.326C99.9859 118.307 99.9779 118.288 99.9699 118.268C99.1608 116.339 93.9976 121.718 93.7743 123.531C93.676 124.332 93.7175 125.145 93.8969 125.932C92.2244 122.284 91.356 118.319 91.3504 114.306C91.3501 113.298 91.406 112.292 91.518 111.291C91.6106 110.471 91.739 109.656 91.9032 108.847C92.7996 104.459 94.7242 100.346 97.519 96.8453C99.1173 96.9345 100.518 96.691 100.653 93.5934C100.677 93.0424 101.086 92.5653 101.176 92.0225C101.024 92.0425 100.868 92.055 100.716 92.065C100.668 92.0675 100.618 92.07 100.571 92.0725L100.553 92.0733C100.385 92.0808 100.219 92.0397 100.074 91.9549C99.9291 91.8701 99.8118 91.7453 99.7363 91.5954C99.6607 91.4455 99.6301 91.2769 99.6481 91.11C99.6661 90.9431 99.7319 90.785 99.8377 90.6546C99.9036 90.5736 99.9695 90.4925 100.035 90.4115C100.136 90.2865 100.238 90.1639 100.338 90.0388C100.35 90.0269 100.361 90.0144 100.371 90.0013C100.486 89.8587 100.601 89.7186 100.716 89.576C100.506 89.25 100.223 88.977 99.8904 88.7781C98.7372 88.1027 97.1463 88.5705 96.3133 89.6136C95.4778 90.6567 95.3202 92.12 95.6104 93.4233C95.8957 94.5322 96.3678 95.5845 97.0062 96.5351C96.9437 96.6152 96.8786 96.6927 96.8161 96.7728C95.6729 98.2427 94.6766 99.8212 93.8413 101.486C94.0776 99.6396 91.1878 92.9734 90.0703 91.5614C88.7279 89.8653 85.9753 90.6055 85.7388 92.7555C85.7366 92.7763 85.7343 92.7971 85.7321 92.8179C85.8981 92.9116 86.0606 93.011 86.2196 93.1161C86.4193 93.2496 86.5741 93.4402 86.6636 93.6631C86.7531 93.886 86.7732 94.1307 86.7212 94.3652C86.6693 94.5998 86.5477 94.8131 86.3724 94.9773C86.1971 95.1416 85.9763 95.249 85.7389 95.2856L85.7146 95.2894C83.4927 98.4618 90.6156 106.719 92.3985 104.865C91.5593 107.243 91.033 109.72 90.8326 112.234C90.7192 113.717 90.7259 115.207 90.8526 116.689L90.8451 116.637C90.449 113.409 83.6529 108.61 81.6683 109.009C80.525 109.24 79.399 109.187 79.5726 110.34C79.5754 110.359 79.5782 110.377 79.581 110.396C79.8891 110.521 80.189 110.666 80.479 110.828C80.645 110.922 80.8075 111.022 80.9665 111.127C81.1662 111.26 81.321 111.451 81.4105 111.674C81.5 111.897 81.5201 112.141 81.4682 112.376C81.4162 112.61 81.2946 112.824 81.1193 112.988C80.9441 113.152 80.7233 113.26 80.4859 113.296L80.4615 113.3C80.444 113.302 80.429 113.305 80.4115 113.307C79.4001 116.787 86.9006 122.404 91.4605 120.617H91.463C91.9149 122.58 92.5696 124.492 93.4166 126.32H100.396C100.421 126.242 100.443 126.162 100.466 126.085C99.8197 126.125 99.1712 126.087 98.5346 125.97C99.0524 125.334 99.5702 124.694 100.088 124.059C100.1 124.047 100.11 124.034 100.121 124.021C100.383 123.696 100.648 123.373 100.911 123.048L100.911 123.048C100.925 122.051 100.811 121.056 100.571 120.089L100.571 120.089ZM92.5786 104.367L92.5823 104.362L92.5786 104.372V104.367ZM91.0327 118.303L90.9727 118.168C90.9752 118.07 90.9752 117.973 90.9727 117.873C90.9727 117.845 90.9677 117.818 90.9677 117.79C90.9902 117.963 91.0102 118.135 91.0352 118.308L91.0327 118.303Z" fill="#3F3D56"/>
<path d="M22.1527 105.566C23.5653 105.566 24.7105 104.421 24.7105 103.009C24.7105 101.596 23.5653 100.451 22.1527 100.451C20.7401 100.451 19.595 101.596 19.595 103.009C19.595 104.421 20.7401 105.566 22.1527 105.566Z" fill="#3F3D56"/>
<path d="M52.8457 133.469C54.2583 133.469 55.4035 132.324 55.4035 130.911C55.4035 129.499 54.2583 128.354 52.8457 128.354C51.4331 128.354 50.288 129.499 50.288 130.911C50.288 132.324 51.4331 133.469 52.8457 133.469Z" fill="#3F3D56"/>
<path d="M169.34 133.469C170.752 133.469 171.897 132.324 171.897 130.911C171.897 129.499 170.752 128.354 169.34 128.354C167.927 128.354 166.782 129.499 166.782 130.911C166.782 132.324 167.927 133.469 169.34 133.469Z" fill="#3F3D56"/>
<path d="M175.618 100.916C177.03 100.916 178.175 99.7708 178.175 98.3582C178.175 96.9456 177.03 95.8004 175.618 95.8004C174.205 95.8004 173.06 96.9456 173.06 98.3582C173.06 99.7708 174.205 100.916 175.618 100.916Z" fill="#3F3D56"/>
<path d="M168.177 77.1986C169.59 77.1986 170.735 76.0535 170.735 74.6409C170.735 73.2283 169.59 72.0831 168.177 72.0831C166.764 72.0831 165.619 73.2283 165.619 74.6409C165.619 76.0535 166.764 77.1986 168.177 77.1986Z" fill="#3F3D56"/>
<path d="M61.4491 98.3582C61.4475 99.0115 61.1949 99.6392 60.7434 100.111C60.2919 100.584 59.6761 100.864 59.0235 100.895C58.3709 100.926 57.7314 100.705 57.2373 100.277C56.7433 99.8499 56.4325 99.2488 56.3693 98.5985C56.306 97.9482 56.4952 97.2986 56.8977 96.7839C57.3002 96.2692 57.8851 95.929 58.5314 95.8336C59.1778 95.7382 59.8361 95.8949 60.3701 96.2713C60.9041 96.6478 61.2729 97.2151 61.4003 97.8559C61.4331 98.0213 61.4494 98.1895 61.4491 98.3582Z" fill="#3F3D56"/>
<path d="M112.604 84.6393C114.017 84.6393 115.162 83.4942 115.162 82.0816C115.162 80.6689 114.017 79.5238 112.604 79.5238C111.191 79.5238 110.046 80.6689 110.046 82.0816C110.046 83.4942 111.191 84.6393 112.604 84.6393Z" fill="#3F3D56"/>
<path d="M87.2591 82.0816C87.2575 82.7349 87.0049 83.3626 86.5534 83.8349C86.1019 84.3071 85.4861 84.5877 84.8335 84.6186C84.1809 84.6495 83.5414 84.4283 83.0474 84.0008C82.5533 83.5733 82.2425 82.9722 82.1793 82.3219C82.116 81.6716 82.3052 81.0219 82.7077 80.5073C83.1102 79.9926 83.6951 79.6524 84.3414 79.557C84.9878 79.4616 85.6461 79.6183 86.1801 79.9947C86.7141 80.3712 87.0829 80.9385 87.2102 81.5793C87.2431 81.7447 87.2594 81.9129 87.2591 82.0816Z" fill="#3F3D56"/>
<path d="M54.2409 74.6409C54.2394 75.2942 53.9867 75.922 53.5352 76.3942C53.0837 76.8665 52.468 77.1471 51.8153 77.1779C51.1627 77.2088 50.5232 76.9876 50.0291 76.5601C49.5351 76.1326 49.2243 75.5315 49.1611 74.8812C49.0978 74.231 49.287 73.5813 49.6895 73.0666C50.092 72.5519 50.6769 72.2117 51.3232 72.1163C51.9696 72.0209 52.6279 72.1776 53.1619 72.554C53.6959 72.9305 54.0647 73.4978 54.1921 74.1386C54.2249 74.304 54.2412 74.4723 54.2409 74.6409Z" fill="#3F3D56"/>
<path d="M139.344 106.496C140.757 106.496 141.902 105.351 141.902 103.939C141.902 102.526 140.757 101.381 139.344 101.381C137.932 101.381 136.786 102.526 136.786 103.939C136.786 105.351 137.932 106.496 139.344 106.496Z" fill="#3F3D56"/>
<path d="M99.1177 83.2442C101.172 83.2442 102.838 81.5785 102.838 79.5238C102.838 77.4691 101.172 75.8035 99.1177 75.8035C97.063 75.8035 95.3973 77.4691 95.3973 79.5238C95.3973 81.5785 97.063 83.2442 99.1177 83.2442Z" fill="#3F3D56"/>
<path d="M199.728 133.665L0.282108 133.736C0.24575 133.736 0.209747 133.729 0.176157 133.715C0.142567 133.701 0.112048 133.681 0.0863389 133.655C0.06063 133.629 0.0402342 133.599 0.0263207 133.565C0.0124072 133.532 0.00524902 133.496 0.00524902 133.459C0.00524902 133.423 0.0124072 133.387 0.0263207 133.353C0.0402342 133.32 0.06063 133.289 0.0863389 133.263C0.112048 133.238 0.142567 133.217 0.176157 133.203C0.209747 133.189 0.24575 133.182 0.282108 133.182L199.728 133.111C199.802 133.111 199.872 133.14 199.924 133.192C199.975 133.244 200.004 133.314 200.004 133.388C200.004 133.461 199.975 133.531 199.924 133.583C199.872 133.635 199.802 133.664 199.728 133.665Z" fill="#CACACA"/>
</g>
<defs>
<clipPath id="clip0_176_57">
<rect width="200" height="132.805" fill="white" transform="translate(0.00524902 0.931152)"/>
</clipPath>
</defs>
</svg>
