<svg width="331" height="280" viewBox="0 0 331 280" fill="none" xmlns="http://www.w3.org/2000/svg">
<g clip-path="url(#clip0_104_118)">
<path d="M94.6586 76.0195C94.6586 76.0195 112.79 122.249 187.643 129.195C262.497 136.142 288.009 111.47 314.084 118.656" stroke="#FF9A8D" stroke-miterlimit="10" stroke-linecap="round" stroke-linejoin="round" stroke-dasharray="5 5"/>
<path d="M74.0398 77.4567L85.8334 60.6097L102.36 55.6594L53.9827 37.1357L74.0398 77.4567Z" fill="#FF9A8D"/>
<path d="M53.9827 37.1357L84.3893 62.6856L87.7589 70.9095L89.2832 59.5718L53.9827 37.1357Z" fill="#D66F67"/>
<path d="M81.0197 67.556L87.7589 70.9094L84.3893 62.6855L81.0197 67.556Z" fill="#EF857D"/>
<path d="M43.5528 127.221C56.8164 121.753 63.1148 106.62 57.6208 93.4201C52.1267 80.2201 36.9206 73.9519 23.6569 79.4197C10.3933 84.8874 4.09489 100.02 9.58897 113.22C15.0831 126.42 30.2892 132.689 43.5528 127.221Z" stroke="#FF9A8D" stroke-linecap="round" stroke-linejoin="round" stroke-dasharray="5.08 5.08"/>
<path d="M184.996 19.2507H181.466V15.7376C181.466 15.4981 181.305 15.3384 181.065 15.3384C180.824 15.3384 180.664 15.4981 180.664 15.7376V19.2507H177.133C176.893 19.2507 176.732 19.4104 176.732 19.6499C176.732 19.8895 176.893 20.0491 177.133 20.0491H180.664V23.5623C180.664 23.8018 180.824 23.9615 181.065 23.9615C181.305 23.9615 181.466 23.8018 181.466 23.5623V20.0491H184.996C185.237 20.0491 185.397 19.8895 185.397 19.6499C185.397 19.4104 185.237 19.2507 184.996 19.2507Z" fill="#FF8968"/>
<path d="M296.834 145.883H293.304V142.29C293.304 142.05 293.144 141.891 292.903 141.891C292.663 141.891 292.502 142.05 292.502 142.29V145.803H288.972C288.731 145.803 288.571 145.963 288.571 146.202C288.571 146.442 288.731 146.601 288.972 146.601H292.502V150.115C292.502 150.354 292.663 150.514 292.903 150.514C293.144 150.514 293.304 150.354 293.304 150.115V146.601H296.834C297.075 146.601 297.236 146.442 297.236 146.202C297.236 145.963 296.995 145.883 296.834 145.883Z" fill="#FF8968"/>
<path d="M131.002 80.4113C132.464 80.4113 133.65 79.2316 133.65 77.7764C133.65 76.3213 132.464 75.1416 131.002 75.1416C129.54 75.1416 128.355 76.3213 128.355 77.7764C128.355 79.2316 129.54 80.4113 131.002 80.4113Z" fill="#FF9A8D"/>
<path d="M91.6901 204.967C93.1523 204.967 94.3376 203.787 94.3376 202.332C94.3376 200.877 93.1523 199.697 91.6901 199.697C90.2279 199.697 89.0426 200.877 89.0426 202.332C89.0426 203.787 90.2279 204.967 91.6901 204.967Z" fill="#FF9A8D"/>
<path d="M44.9971 19.0912H92.6528C92.6528 19.0912 89.5239 11.027 81.822 7.83329C74.1201 4.55971 68.1029 10.3883 68.1029 10.3883C68.1029 10.3883 62.6474 0.00863159 52.2177 1.0466C41.7077 2.08456 38.2579 10.0689 38.2579 10.0689C38.2579 10.0689 26.2236 7.83329 25.0202 19.0912H44.9971Z" fill="#FFF1E2"/>
</g>
<path d="M301.394 252.954C301.394 252.954 297.272 214.846 279.15 211.247C260.951 207.569 268.417 227.836 258.773 227.366C249.129 226.897 256.984 166.567 214.986 163.906C172.987 161.167 198.653 229.323 178.742 228.384C158.91 227.523 172.987 188.32 150.277 186.99C127.566 185.659 141.799 230.731 125.933 230.34C110.067 229.87 115.122 198.571 89.534 174.704C63.9459 150.838 29.8803 198.258 35.0912 252.563L301.394 252.954Z" fill="#E0CDCD"/>
<mask id="mask0_104_118" style="mask-type:luminance" maskUnits="userSpaceOnUse" x="34" y="163" width="268" height="90">
<path d="M301.394 252.954C301.394 252.954 297.272 214.846 279.15 211.247C260.951 207.569 268.417 227.836 258.773 227.366C249.129 226.897 256.984 166.567 214.986 163.906C172.987 161.167 198.653 229.323 178.742 228.384C158.91 227.523 172.987 188.32 150.277 186.99C127.566 185.659 141.799 230.731 125.933 230.34C110.067 229.87 115.122 198.571 89.534 174.704C63.9459 150.838 29.8803 198.258 35.0912 252.563L301.394 252.954Z" fill="white"/>
</mask>
<g mask="url(#mask0_104_118)">
<path d="M134.799 177.913C121.733 184.094 108.511 190.276 97.0004 199.197C85.9563 207.726 76.6233 218.055 67.5235 228.618C58.5794 238.947 49.7908 249.511 39.7577 258.823C29.8803 267.978 18.6028 275.959 5.69213 280.106C-6.67416 284.097 -20.4404 284.88 -32.7289 280.028C-34.2844 279.402 -35.7621 278.698 -37.2399 277.915C-37.9399 277.524 -38.4843 278.541 -37.8621 278.933C-26.2735 285.114 -12.7406 285.819 -0.141025 282.923C13.003 279.95 24.6693 272.986 35.0134 264.456C45.6687 255.614 54.7684 245.129 63.7903 234.643C73.0456 223.923 82.2231 213.047 93.0339 203.891C104.234 194.267 117.222 187.459 130.522 181.199C132.155 180.417 133.788 179.634 135.421 178.93C136.044 178.539 135.421 177.521 134.799 177.913Z" fill="#ECDDDD"/>
</g>
<mask id="mask1_104_118" style="mask-type:luminance" maskUnits="userSpaceOnUse" x="34" y="163" width="268" height="90">
<path d="M301.394 252.954C301.394 252.954 297.272 214.846 279.15 211.247C260.951 207.569 268.417 227.836 258.773 227.366C249.129 226.897 256.984 166.567 214.986 163.906C172.987 161.167 198.653 229.323 178.742 228.384C158.91 227.523 172.987 188.32 150.277 186.99C127.566 185.659 141.799 230.731 125.933 230.34C110.067 229.87 115.122 198.571 89.534 174.704C63.9459 150.838 29.8803 198.258 35.0912 252.563L301.394 252.954Z" fill="white"/>
</mask>
<g mask="url(#mask1_104_118)">
<path d="M105.322 189.024C93.2672 189.494 81.3676 192.702 69.1568 192.154C63.4792 191.919 57.7238 190.824 52.5907 188.242C48.0797 185.972 44.1909 182.686 40.8466 178.852C37.0356 174.548 34.0024 169.618 31.358 164.454C31.0469 163.75 30.0358 164.376 30.3469 165.08C35.0134 174.078 41.1577 182.999 50.1019 188.242C60.2904 194.189 72.4234 193.954 83.7786 192.624C90.9339 191.763 98.0893 190.511 105.322 190.276C106.1 190.12 106.1 188.946 105.322 189.024Z" fill="#ECDDDD"/>
</g>
<mask id="mask2_104_118" style="mask-type:luminance" maskUnits="userSpaceOnUse" x="34" y="163" width="268" height="90">
<path d="M301.394 252.954C301.394 252.954 297.272 214.846 279.15 211.247C260.951 207.569 268.417 227.836 258.773 227.366C249.129 226.897 256.984 166.567 214.986 163.906C172.987 161.167 198.653 229.323 178.742 228.384C158.91 227.523 172.987 188.32 150.277 186.99C127.566 185.659 141.799 230.731 125.933 230.34C110.067 229.87 115.122 198.571 89.534 174.704C63.9459 150.838 29.8803 198.258 35.0912 252.563L301.394 252.954Z" fill="white"/>
</mask>
<g mask="url(#mask2_104_118)">
<path d="M80.1231 136.44C103.3 137.223 127.877 138.24 148.099 150.995C157.354 156.863 164.354 165.08 170.576 174C176.642 182.686 182.164 191.763 189.242 199.588C202.619 214.298 220.974 225.801 241.118 227.523C261.184 229.244 280.084 219.619 293.694 205.222C308.549 189.415 316.405 168.444 319.127 147.16C319.516 144.422 319.749 141.605 319.982 138.866C320.06 138.084 318.894 138.084 318.816 138.866C317.182 160.698 310.805 182.764 296.805 199.901C284.283 215.316 265.851 226.818 245.629 226.662C225.252 226.505 206.119 215.55 192.197 201.074C177.731 186.129 169.798 165.471 152.765 152.794C134.488 139.257 111.078 136.597 89.1451 135.58C86.1119 135.423 83.1564 135.345 80.1231 135.267C79.3454 135.267 79.3454 136.44 80.1231 136.44Z" fill="#ECDDDD"/>
</g>
<mask id="mask3_104_118" style="mask-type:luminance" maskUnits="userSpaceOnUse" x="34" y="163" width="268" height="90">
<path d="M301.394 252.954C301.394 252.954 297.272 214.846 279.15 211.247C260.951 207.569 268.417 227.836 258.773 227.366C249.129 226.897 256.984 166.567 214.986 163.906C172.987 161.167 198.653 229.323 178.742 228.384C158.91 227.523 172.987 188.32 150.277 186.99C127.566 185.659 141.799 230.731 125.933 230.34C110.067 229.87 115.122 198.571 89.534 174.704C63.9459 150.838 29.8803 198.258 35.0912 252.563L301.394 252.954Z" fill="white"/>
</mask>
<g mask="url(#mask3_104_118)">
<path d="M274.328 178.851C266.317 183.468 258.229 188.085 251.384 194.345C247.962 197.475 244.929 201.074 242.44 204.987C239.796 209.29 237.852 213.907 236.296 218.68C233.029 228.696 231.707 239.338 232.252 249.824C232.718 258.275 234.429 266.647 238.007 274.237C241.818 282.297 247.885 289.418 256.129 293.017C256.829 293.33 257.373 292.313 256.751 292C241.663 285.505 234.974 268.134 233.574 252.719C232.641 242.546 233.574 232.296 236.296 222.436C238.94 212.968 243.14 204.126 250.062 197.084C257.218 189.885 266.084 184.72 274.873 179.79C275.573 179.477 274.95 178.46 274.328 178.851Z" fill="#ECDDDD"/>
</g>
<path d="M53.7762 227.336C65.6531 221.67 70.7165 207.391 65.0857 195.442C59.4548 183.493 45.2619 178.398 33.385 184.064C21.5081 189.729 16.4447 204.008 22.0756 215.957C27.7065 227.907 41.8993 233.001 53.7762 227.336Z" fill="#9082C0"/>
<path d="M43.5687 191.137L43.6465 252.484" stroke="#0F042C" stroke-width="0.6031" stroke-miterlimit="10" stroke-linecap="round" stroke-linejoin="round"/>
<path d="M53.9129 209.838L43.6465 219.228" stroke="#0F042C" stroke-width="0.6031" stroke-miterlimit="10" stroke-linecap="round" stroke-linejoin="round"/>
<path d="M31.9024 194.267L43.5687 210.464" stroke="#0F042C" stroke-width="0.6031" stroke-miterlimit="10" stroke-linecap="round" stroke-linejoin="round"/>
<path d="M291.424 234.943C297.954 228.373 297.954 217.721 291.424 211.151C284.893 204.581 274.306 204.581 267.776 211.151C261.246 217.721 261.246 228.373 267.776 234.943C274.306 241.513 284.893 241.513 291.424 234.943Z" fill="#9082C0"/>
<path d="M279.539 212.812L279.617 252.406" stroke="#0F042C" stroke-width="0.6031" stroke-miterlimit="10" stroke-linecap="round" stroke-linejoin="round"/>
<path d="M286.85 226.036L279.617 232.609" stroke="#0F042C" stroke-width="0.6031" stroke-miterlimit="10" stroke-linecap="round" stroke-linejoin="round"/>
<path d="M271.373 215.081L279.617 226.427" stroke="#0F042C" stroke-width="0.6031" stroke-miterlimit="10" stroke-linecap="round" stroke-linejoin="round"/>
<path d="M1.18115 252.954L315.783 252.562" stroke="#FCFCFC" stroke-width="0.9945" stroke-miterlimit="10" stroke-linecap="round" stroke-linejoin="round"/>
<path d="M147.943 240.434L148.41 252.25L156.265 252.328L155.876 240.043L147.943 240.434Z" fill="#FB959D"/>
<path d="M146.077 251.702V257.493L135.733 259.84C133.633 260.623 132.233 262.501 132.077 264.77L131.922 266.1L161.554 266.178L159.065 251.702H146.077Z" fill="#281938"/>
<path d="M131.922 263.361L161.554 263.518L162.021 266.257L131.455 266.178L131.922 263.361Z" fill="white"/>
<path d="M157.199 257.806C157.199 259.214 156.032 260.31 154.71 260.31C153.31 260.31 152.221 259.136 152.221 257.806C152.221 256.397 153.388 255.302 154.71 255.302C156.11 255.302 157.199 256.397 157.199 257.806Z" fill="white"/>
<path d="M164.276 155.769L131.455 195.441C128.733 198.727 127.177 202.718 127.022 207.022L125.466 242.704H157.354V207.178L197.175 172.357L199.431 153.891L164.276 155.769Z" fill="#796EAF"/>
<path d="M95.8338 256.084L106.956 265.239C108.433 266.413 110.222 267.039 112.089 267.039H183.098C184.887 267.039 186.675 266.413 188.075 265.317L199.819 256.084" stroke="#0F042C" stroke-width="2.1453" stroke-miterlimit="10"/>
<path d="M120.255 279.481C122.875 279.481 125 277.343 125 274.707C125 272.071 122.875 269.934 120.255 269.934C117.635 269.934 115.511 272.071 115.511 274.707C115.511 277.343 117.635 279.481 120.255 279.481Z" fill="#9082C0"/>
<path d="M173.454 279.481C176.074 279.481 178.198 277.343 178.198 274.707C178.198 272.071 176.074 269.934 173.454 269.934C170.833 269.934 168.709 272.071 168.709 274.707C168.709 277.343 170.833 279.481 173.454 279.481Z" fill="#9082C0"/>
<path d="M250.996 164.063L258.773 155.142L253.018 149.665L244.929 158.898L250.996 164.063Z" fill="#FB959D"/>
<path d="M260.095 157.177L264.062 153.03L273.162 158.429C275.184 159.29 277.595 158.899 279.228 157.412L280.239 156.551L258.773 136.05L250.762 148.257L260.095 157.177Z" fill="#281938"/>
<path d="M278.061 158.429L256.907 138.162L258.462 135.815L280.317 156.708L278.061 158.429Z" fill="white"/>
<path d="M256.129 145.048C257.062 144.031 258.695 144.031 259.706 144.97C260.718 145.909 260.718 147.552 259.784 148.57C258.851 149.587 257.218 149.587 256.207 148.648C255.195 147.631 255.195 146.066 256.129 145.048Z" fill="white"/>
<path d="M199.353 153.812L224.396 177.131L247.107 155.769L268.262 177.131L237.152 206.631C229.53 213.83 217.708 214.143 209.697 207.335L158.054 163.28L169.643 149.039L199.353 153.812Z" fill="#9082C0"/>
<path d="M159.376 162.263C159.376 162.263 191.109 166.802 202.697 156.864L192.586 147.709L159.376 162.263Z" fill="#796EAF"/>
<path d="M183.098 184.643L158.054 163.281" stroke="#0F042C" stroke-width="0.6031" stroke-miterlimit="10"/>
<path d="M224.474 177.131L228.052 180.574L235.207 167.037L224.474 177.131Z" fill="#796EAF"/>
<path d="M148.954 91.0561C146.466 87.9262 142.032 86.2829 136.588 89.3346C136.588 89.3346 136.588 89.3346 136.51 89.3346C136.51 89.3346 136.433 89.3347 136.433 89.4129C135.966 89.6476 134.566 90.3519 132.777 90.1954C131.533 90.1171 128.811 90.4301 127.099 92.4646C126.788 92.8559 126.477 93.2471 126.322 93.7166C125.777 95.0469 126.088 96.5336 128.111 97.6291C132.777 100.055 133.555 95.5946 133.555 95.5946L148.954 106.941C148.954 106.941 147.632 105.063 149.265 102.011C150.899 98.9593 151.599 94.3426 148.954 91.0561Z" fill="#0F042C"/>
<path d="M134.021 92.0732C134.021 92.0732 128.655 95.0467 129.744 100.211C130.833 105.376 133.866 114.922 137.521 113.592C141.177 112.262 143.588 110.384 143.588 110.384L146.232 102.793L134.021 92.0732Z" fill="#F2B389"/>
<path d="M131.922 104.358L130.755 108.349C130.677 108.662 130.988 108.975 131.299 108.897L133.477 108.193L131.922 104.358Z" fill="#F2B389"/>
<path d="M140.244 111.166L147.71 119.852L154.476 111.792L144.443 102.793L140.244 111.166Z" fill="#F2B389"/>
<path d="M132.388 99.6638C132.388 99.6638 130.833 99.8203 130.91 100.525C130.91 100.525 130.988 100.994 132.31 100.838C133.633 100.681 134.021 100.525 134.021 100.055C134.177 99.5073 133.088 99.5073 132.388 99.6638Z" fill="#0F042C"/>
<path d="M133.633 103.342C133.788 103.655 133.633 104.046 133.321 104.202C133.01 104.359 132.622 104.202 132.466 103.889C132.31 103.576 132.466 103.185 132.777 103.029C133.088 102.872 133.477 103.029 133.633 103.342Z" fill="#0F042C"/>
<path d="M133.944 109.132C133.944 109.132 134.488 108.819 135.11 108.037" stroke="#0F042C" stroke-width="0.6031" stroke-miterlimit="10" stroke-linecap="round" stroke-linejoin="round"/>
<path d="M141.021 112.027C141.021 112.027 142.577 111.01 142.966 110.462L143.277 114.531L141.021 112.027Z" fill="#0F042C"/>
<path d="M142.577 98.8027C142.577 98.8027 142.655 105.845 149.188 107.019L147.399 103.811L147.632 100.368L144.988 100.602L142.577 98.8027Z" fill="#0F042C"/>
<path d="M131.688 93.4038C131.688 93.4038 130.288 95.8295 138.532 97.7075L141.643 100.368L141.877 95.36L135.577 90.978L131.688 93.4038Z" fill="#0F042C"/>
<path d="M146.388 99.1158C146.699 100.681 145.688 102.168 144.132 102.481C142.577 102.794 141.099 101.776 140.788 100.211C140.477 98.6464 141.488 97.1596 143.043 96.8466C144.599 96.5336 146.077 97.5509 146.388 99.1158Z" fill="#F2B389"/>
<path d="M142.499 100.524C142.499 100.524 142.81 98.1767 144.832 98.5679" stroke="#0F042C" stroke-width="0.6031" stroke-miterlimit="10" stroke-linecap="round" stroke-linejoin="round"/>
<path d="M182.242 133.467L195.464 133.389C197.564 133.389 199.508 132.137 200.364 130.181C201.842 126.894 199.353 122.825 195.775 122.356L178.12 118.443L182.242 133.467Z" fill="#F2B389"/>
<path d="M151.21 134.093L182.242 133.467L187.609 116.174L157.121 110.932C157.121 110.932 142.888 116.018 151.21 134.093Z" fill="white"/>
<path d="M189.009 126.973L180.998 158.585L188.075 159.524L200.519 130.65C202.153 126.582 199.042 122.121 194.608 122.356C191.964 122.434 189.709 124.312 189.009 126.973Z" fill="#F2B389"/>
<path d="M152.999 111.166C151.054 111.714 149.421 113.123 148.41 114.922C146.466 118.209 144.054 124.86 147.243 135.267C151.91 150.682 158.132 163.359 158.132 163.359C158.132 163.359 169.409 163.046 182.32 161.794C198.653 160.151 203.086 151.778 203.086 151.778C203.086 151.778 183.176 124.469 160.465 112.262C160.465 112.262 157.199 109.914 152.999 111.166Z" fill="white"/>
<path d="M183.409 129.633C183.487 129.711 177.031 122.278 166.92 115.939" stroke="#0F042C" stroke-width="0.6031" stroke-miterlimit="10" stroke-linecap="round" stroke-linejoin="round"/>
<path d="M157.51 162.107L151.91 149.039L156.187 143.718L157.51 162.107Z" fill="#0F042C"/>
<path d="M134.721 145.205L129.122 157.255C128.188 159.211 128.499 161.48 129.899 163.124C132.233 165.862 136.977 165.315 138.921 162.263L149.888 147.865L134.721 145.205Z" fill="#F2B389"/>
<path d="M147.399 116.8L134.644 145.283L147.865 157.568L161.787 137.928C161.787 137.849 167.154 116.957 147.399 116.8Z" fill="white"/>
<path d="M137.599 154.203L112.633 133.389L108.744 139.414L129.355 163.124C132.388 166.332 137.677 165.393 139.388 161.324C140.399 158.82 139.699 155.925 137.599 154.203Z" fill="#F2B389"/>
<path d="M111.233 127.755C111 127.129 110.378 126.582 109.678 126.503C108.744 126.347 108.122 127.051 108.278 127.99L108.433 128.773C107.5 128.773 105.789 128.147 104 123.765C103.689 123.06 102.911 122.591 102.211 122.747C101.667 122.904 101.356 123.373 101.434 123.921V123.999C101.045 123.686 100.578 123.53 100.189 123.608C99.6448 123.765 99.3337 124.234 99.4114 124.782C99.4114 124.86 99.4114 124.938 99.4114 125.017C99.1781 124.938 98.9448 124.938 98.7892 125.017C98.2448 125.173 97.9337 125.643 98.0115 126.19C98.0115 126.347 98.0893 126.503 98.0893 126.66C98.0893 126.738 98.167 126.738 98.167 126.816H98.0893C97.5448 126.973 97.2337 127.442 97.3115 127.99C97.3115 128.147 97.3893 128.303 97.3893 128.46C97.8559 129.633 98.4004 130.729 99.0226 131.59C99.0226 131.59 99.0226 131.59 99.0226 131.668C99.3337 132.059 99.567 132.45 99.8781 132.842C101.2 134.563 105.711 137.771 108.744 139.649L112.711 133.546L111.233 127.755Z" fill="#F2B389"/>
<defs>
<clipPath id="clip0_104_118">
<rect width="323" height="204" fill="white" transform="translate(7.20947 0.966797)"/>
</clipPath>
</defs>
</svg>
