<svg width="179" height="200" viewBox="0 0 179 200" fill="none" xmlns="http://www.w3.org/2000/svg">
<g clip-path="url(#clip0_176_23)">
<path d="M101.47 154.103C144.024 154.103 178.521 119.606 178.521 77.0517C178.521 34.4972 144.024 0 101.47 0C58.9152 0 24.418 34.4972 24.418 77.0517C24.418 119.606 58.9152 154.103 101.47 154.103Z" fill="#F2F2F2"/>
<path d="M151.822 34.4574H10.6737C10.371 34.4509 10.1309 34.2003 10.1373 33.8976C10.1436 33.6041 10.3801 33.3676 10.6737 33.3613H151.822C152.124 33.3678 152.364 33.6184 152.358 33.9211C152.352 34.2146 152.115 34.4511 151.822 34.4574Z" fill="#CACACA"/>
<path d="M103.719 52.9268H64.6999C61.7692 52.9268 59.3933 55.3026 59.3933 58.2334V58.2334C59.3933 61.1641 61.7692 63.54 64.6999 63.54H103.719C106.649 63.54 109.025 61.1641 109.025 58.2334C109.025 55.3026 106.649 52.9268 103.719 52.9268Z" fill="white"/>
<path d="M39.4936 74.1533H128.925C131.856 74.1533 134.232 76.5291 134.232 79.4599C134.232 82.3906 131.856 84.7665 128.925 84.7665H39.4936C36.5629 84.7665 34.187 82.3906 34.187 79.4599C34.187 76.5291 36.5629 74.1533 39.4936 74.1533Z" fill="white"/>
<path d="M39.4936 95.3797H128.925C131.856 95.3797 134.232 97.7556 134.232 100.686C134.232 103.617 131.856 105.993 128.925 105.993H39.4936C36.5629 105.993 34.187 103.617 34.187 100.686C34.187 97.7556 36.5629 95.3797 39.4936 95.3797Z" fill="white"/>
<path d="M28.4109 199.533L28.2004 199.513C21.0593 198.776 14.6037 194.935 10.5488 189.011C9.4381 187.36 8.53969 185.576 7.87473 183.701L7.81082 183.522L8.00004 183.507C10.2591 183.325 12.5799 182.942 13.6108 182.76L6.96291 180.507L6.92181 180.31C6.52767 178.458 7.29982 176.553 8.87191 175.498C10.4483 174.393 12.5386 174.357 14.1515 175.409C14.8753 175.871 15.6323 176.329 16.3644 176.772C18.8802 178.294 21.4816 179.867 23.432 182.02C26.3896 185.35 27.6859 189.838 26.96 194.232L28.4109 199.533Z" fill="#F2F2F2"/>
<path d="M52.5759 196.227L55.8521 196.227L57.411 183.589L52.575 183.589L52.5759 196.227Z" fill="#A0616A"/>
<path d="M52.4601 199.645L62.5358 199.645V199.517C62.5357 197.352 60.7799 195.596 58.6141 195.596L56.7734 194.199L53.3395 195.596L52.46 195.596L52.4601 199.645Z" fill="#2F2E41"/>
<path d="M26.3179 187.152L28.9385 189.118L37.7701 179.944L33.9017 177.043L26.3179 187.152Z" fill="#A0616A"/>
<path d="M24.1741 189.817L32.2339 195.863L32.3103 195.761C33.61 194.029 33.2592 191.571 31.5268 190.271L30.8924 188.049L27.3076 187.106L26.604 186.578L24.1741 189.817Z" fill="#2F2E41"/>
<path d="M37.2092 136.919C37.2092 136.919 37.3901 141.853 37.6182 145.81C37.6556 146.459 36.1354 147.164 36.1747 147.87C36.2009 148.338 36.4866 148.793 36.5132 149.282C36.5412 149.797 36.1466 150.253 36.1747 150.786C36.2022 151.307 36.6523 151.904 36.6794 152.437C36.9716 158.173 38.0308 165.04 36.9702 166.96C36.4475 167.906 29.7852 181.013 29.7852 181.013C29.7852 181.013 33.4972 186.581 34.5578 184.725C35.9586 182.273 46.7544 170.805 46.7544 168.614C46.7544 166.427 49.2521 150.033 49.2521 150.033L50.9936 159.735L51.7922 161.657L51.5413 162.785L52.0573 164.308L52.0852 165.816L52.5876 168.614C52.5876 168.614 51.0763 190.42 51.9274 191.027C52.7812 191.637 56.9148 192.732 57.4026 191.637C57.8879 190.542 61.0461 168.88 61.0461 168.88C61.0461 168.88 61.5552 158.953 62.1067 149.726C62.1385 149.19 62.5151 148.543 62.5442 148.015C62.5787 147.403 62.3401 146.607 62.3719 146.013C62.4063 145.332 62.7086 144.852 62.7378 144.2C62.9631 139.159 61.698 133.022 61.295 132.417C60.0779 130.593 58.9829 129.135 58.9829 129.135C58.9829 129.135 42.591 123.749 38.2108 129.221L37.2092 136.919Z" fill="#2F2E41"/>
<path d="M53.5579 86.1838L47.0598 84.8842L44.0274 88.9996C38.369 94.5633 38.2838 99.4736 39.2939 107.345V118.391L38.5628 125.797C38.5628 125.797 35.9748 131.21 38.6441 132.47C41.3134 133.731 58.847 133.623 60.521 133.12C62.195 132.617 60.744 131.999 60.3044 129.655C59.4787 125.25 60.031 127.375 60.0878 125.972C60.9026 105.856 59.0048 97.5974 58.8121 95.4266L55.5074 89.4328L53.5579 86.1838Z" fill="#9082C0"/>
<path d="M87.8069 102.403C87.1296 103.686 85.5404 104.178 84.2572 103.5C84.1204 103.428 83.9902 103.344 83.8682 103.249L69.835 112.159L69.8754 107.308L83.5076 99.397C84.4786 98.3084 86.1484 98.213 87.237 99.184C88.148 99.9965 88.3836 101.327 87.8069 102.403Z" fill="#A0616A"/>
<path d="M48.4274 91.802L46.8298 91.6327C45.3536 91.4796 43.9052 92.1118 43.0138 93.2984C42.6723 93.7484 42.4271 94.2639 42.2933 94.8127L42.2924 94.817C41.8916 96.4689 42.5202 98.2 43.8874 99.2099L49.4055 103.278C53.2779 108.511 60.5557 111.982 69.0926 114.803L82.3621 106.561L77.6686 100.877L68.567 105.755L55.038 95.2821L55.0302 95.2758L49.881 91.9583L48.4274 91.802Z" fill="#9082C0"/>
<path d="M51.3624 82.9929C55.5474 82.9929 58.9401 79.6002 58.9401 75.4152C58.9401 71.2301 55.5474 67.8375 51.3624 67.8375C47.1773 67.8375 43.7847 71.2301 43.7847 75.4152C43.7847 79.6002 47.1773 82.9929 51.3624 82.9929Z" fill="#A0616A"/>
<path d="M51.5373 82.9945C51.4762 82.9965 51.415 82.9979 51.3538 82.9995C51.3277 83.0674 51.2994 83.1348 51.2668 83.2008L51.5373 82.9945Z" fill="#2F2E41"/>
<path d="M53.6169 75.6254C53.6288 75.7 53.647 75.7735 53.6713 75.8451C53.6613 75.7701 53.643 75.6964 53.6169 75.6254Z" fill="#2F2E41"/>
<path d="M59.0366 68.1617C58.7247 69.1302 58.4463 67.9017 57.4202 68.1226C56.1859 68.3885 54.7496 68.2972 53.7388 67.5406C52.2327 66.4355 50.281 66.1381 48.514 66.7442C46.7845 67.3561 43.8869 67.7876 43.4362 69.566C43.2795 70.1841 43.2173 70.855 42.8376 71.3673C42.5056 71.8153 41.9817 72.0707 41.5435 72.4154C40.064 73.5795 41.1948 76.8868 41.895 78.6343C42.5953 80.3818 44.2016 81.6549 45.9676 82.3069C47.6763 82.9378 49.5309 83.0491 51.3537 82.9995C51.6708 82.1773 51.5338 81.2275 51.2722 80.3751C50.989 79.4523 50.5697 78.5617 50.4514 77.6037C50.333 76.6457 50.5929 75.5575 51.3961 75.0222C52.1345 74.5302 53.336 74.8299 53.6169 75.6254C53.453 74.6309 54.4604 73.6685 55.4992 73.4993C56.6145 73.3175 57.7297 73.7202 58.8418 73.9206C59.9539 74.121 59.5592 69.4392 59.0366 68.1617Z" fill="#2F2E41"/>
<path d="M101.417 87.9502C102.123 79.4149 95.7768 71.923 87.2415 71.2166C78.7061 70.5102 71.2142 76.8568 70.5078 85.3921C69.8014 93.9274 76.148 101.419 84.6833 102.126C93.2187 102.832 100.711 96.4855 101.417 87.9502Z" fill="#9082C0"/>
<path d="M90.0358 80.2098L85.9623 84.2833L81.8888 80.2098C81.2294 79.5504 80.1603 79.5504 79.5009 80.2098C78.8415 80.8692 78.8415 81.9383 79.5009 82.5977L83.5744 86.6712L79.5009 90.7447C78.8421 91.4047 78.8431 92.4738 79.5031 93.1326C80.1623 93.7905 81.2297 93.7905 81.8888 93.1326L85.9623 89.0591L90.0358 93.1326C90.6959 93.7914 91.765 93.7904 92.4238 93.1304C93.0817 92.4712 93.0817 91.4039 92.4238 90.7447L88.3503 86.6712L92.4238 82.5977C93.0832 81.9383 93.0832 80.8692 92.4238 80.2098C91.7644 79.5504 90.6952 79.5504 90.0358 80.2098Z" fill="white"/>
<path d="M79.8512 73.6371C80.3084 75.0142 79.5626 76.5011 78.1855 76.9582C78.0387 77.0069 77.8879 77.0426 77.7348 77.0648L74.4493 93.36L70.9766 89.9722L74.7056 74.6583C74.5922 73.2039 75.6794 71.933 77.1338 71.8196C78.3507 71.7248 79.4742 72.4762 79.8512 73.6371Z" fill="#A0616A"/>
<path d="M44.9387 94.7144L43.7105 95.75C42.578 96.7093 42.0315 98.1921 42.2706 99.6569C42.359 100.215 42.5612 100.749 42.8646 101.225L42.8671 101.229C43.7816 102.662 45.466 103.406 47.1412 103.119L53.8971 101.954C60.3539 102.782 67.8974 99.9334 75.8426 95.7256L79.0823 80.4449L71.7312 79.8964L68.95 89.8412L52.0265 92.3534L52.0165 92.3546L46.0578 93.7736L44.9387 94.7144Z" fill="#9082C0"/>
<path d="M83.4076 199.907L0.971359 200C0.771877 199.999 0.610684 199.837 0.61133 199.638C0.61197 199.439 0.772784 199.278 0.971359 199.278L83.4076 199.184C83.607 199.185 83.7682 199.347 83.7676 199.547C83.767 199.745 83.6061 199.906 83.4076 199.907Z" fill="#CACACA"/>
<path d="M17.8349 27.5152C19.2517 27.5152 20.4002 26.341 20.4002 24.8927C20.4002 23.4443 19.2517 22.2701 17.8349 22.2701C16.4181 22.2701 15.2695 23.4443 15.2695 24.8927C15.2695 26.341 16.4181 27.5152 17.8349 27.5152Z" fill="#9082C0"/>
<path d="M26.6969 27.5152C28.1137 27.5152 29.2623 26.341 29.2623 24.8927C29.2623 23.4443 28.1137 22.2701 26.6969 22.2701C25.2801 22.2701 24.1316 23.4443 24.1316 24.8927C24.1316 26.341 25.2801 27.5152 26.6969 27.5152Z" fill="#9082C0"/>
<path d="M35.559 27.5152C36.9758 27.5152 38.1243 26.341 38.1243 24.8927C38.1243 23.4443 36.9758 22.2701 35.559 22.2701C34.1422 22.2701 32.9937 23.4443 32.9937 24.8927C32.9937 26.341 34.1422 27.5152 35.559 27.5152Z" fill="#9082C0"/>
<path d="M45.6642 26.9654C45.5854 26.9654 45.5068 26.9349 45.4474 26.8742L43.7164 25.1047C43.601 24.9868 43.601 24.7984 43.7164 24.6805L45.4474 22.9112C45.5648 22.7915 45.7571 22.7896 45.8763 22.9064C45.9962 23.0236 45.9982 23.2157 45.8811 23.3354L44.3576 24.8926L45.8811 26.4499C45.9982 26.5696 45.9962 26.7617 45.8763 26.8789C45.8174 26.9367 45.7408 26.9654 45.6642 26.9654Z" fill="#9082C0"/>
<path d="M48.5729 26.9654C48.4963 26.9654 48.4197 26.9366 48.3608 26.8789C48.241 26.7617 48.2389 26.5697 48.3561 26.4499L49.8793 24.8926L48.3561 23.3354C48.2389 23.2157 48.241 23.0236 48.3608 22.9064C48.4803 22.7891 48.6726 22.7913 48.7898 22.9111L50.5206 24.6805C50.6359 24.7984 50.6359 24.9868 50.5206 25.1047L48.7898 26.8741C48.7304 26.9349 48.6517 26.9654 48.5729 26.9654Z" fill="#9082C0"/>
<path d="M139.127 22.5738H135.908C135.541 22.5738 135.244 22.8711 135.244 23.2381V26.4597C135.244 26.8268 135.541 27.1241 135.908 27.1241H139.127C139.494 27.1241 139.794 26.8268 139.794 26.4597V23.2381C139.794 22.8711 139.494 22.5738 139.127 22.5738Z" fill="#9082C0"/>
<path d="M131.24 22.5738H128.021C127.654 22.5738 127.357 22.8711 127.357 23.2381V26.4597C127.357 26.8268 127.654 27.1241 128.021 27.1241H131.24C131.607 27.1241 131.907 26.8268 131.907 26.4597V23.2381C131.907 22.8711 131.607 22.5738 131.24 22.5738Z" fill="#9082C0"/>
<path d="M146.559 22.7255H143.34C142.973 22.7255 142.676 23.0227 142.676 23.3898V26.6114C142.676 26.9785 142.973 27.2758 143.34 27.2758H146.559C146.926 27.2758 147.226 26.9785 147.226 26.6114V23.3898C147.226 23.0227 146.926 22.7255 146.559 22.7255Z" fill="#9082C0"/>
<path d="M98.0461 23.951H72.3188C71.8698 23.951 71.5088 24.315 71.5088 24.761C71.5088 25.2069 71.8698 25.5709 72.3188 25.5709H98.0461C98.492 25.5709 98.8561 25.2069 98.8561 24.761C98.8561 24.315 98.492 23.951 98.0461 23.951Z" fill="#9082C0"/>
</g>
<defs>
<clipPath id="clip0_176_23">
<rect width="177.91" height="200" fill="white" transform="translate(0.611328)"/>
</clipPath>
</defs>
</svg>
