<svg width="26" height="26" viewBox="0 0 26 26" fill="none" xmlns="http://www.w3.org/2000/svg">
<path d="M15.007 8.02059C16.1155 8.02059 17.014 7.12284 17.014 6.01542C17.014 4.908 16.1155 4.01025 15.007 4.01025C13.8985 4.01025 13 4.908 13 6.01542C13 7.12284 13.8985 8.02059 15.007 8.02059Z" stroke="white" stroke-width="1.5" stroke-linecap="round" stroke-linejoin="round"/>
<path d="M19.0213 22.057C20.684 22.057 22.0318 20.7104 22.0318 19.0493C22.0318 17.3881 20.684 16.0415 19.0213 16.0415C17.3586 16.0415 16.0107 17.3881 16.0107 19.0493C16.0107 20.7104 17.3586 22.057 19.0213 22.057Z" stroke="white" stroke-width="1.5" stroke-linecap="round" stroke-linejoin="round"/>
<path d="M6.97879 22.057C8.64145 22.057 9.98931 20.7104 9.98931 19.0493C9.98931 17.3881 8.64145 16.0415 6.97879 16.0415C5.31612 16.0415 3.96826 17.3881 3.96826 19.0493C3.96826 20.7104 5.31612 22.057 6.97879 22.057Z" stroke="white" stroke-width="1.5" stroke-linecap="round" stroke-linejoin="round"/>
<path d="M12.4982 19.0489L14.0035 15.0386L9.104 13.0334L12.1148 9.52441L15.1253 12.0309H18.6376" stroke="white" stroke-width="1.5" stroke-linecap="round" stroke-linejoin="round"/>
</svg>
