<svg width="21" height="21" viewBox="0 0 21 21" fill="none" xmlns="http://www.w3.org/2000/svg">
<path d="M1.54004 2.51465C1.54004 2.24943 1.6454 1.99508 1.83293 1.80754C2.02047 1.62001 2.27482 1.51465 2.54004 1.51465H18.54C18.8053 1.51465 19.0596 1.62001 19.2471 1.80754C19.4347 1.99508 19.54 2.24943 19.54 2.51465V5.10065C19.54 5.36584 19.4346 5.62016 19.247 5.80765L12.833 12.2216C12.6455 12.4091 12.5401 12.6635 12.54 12.9286V15.5146L8.54004 19.5146V12.9286C8.53998 12.6635 8.43459 12.4091 8.24704 12.2216L1.83304 5.80765C1.64549 5.62016 1.5401 5.36584 1.54004 5.10065V2.51465Z" stroke="#929292" stroke-width="2" stroke-linecap="round" stroke-linejoin="round"/>
</svg>
