<svg width="20" height="21" viewBox="0 0 20 21" fill="none" xmlns="http://www.w3.org/2000/svg">
<path d="M12.993 16.3519V17.0834C12.993 17.8594 12.6748 18.6036 12.1084 19.1524C11.542 19.7011 10.7737 20.0093 9.97268 20.0093C9.17164 20.0093 8.40341 19.7011 7.83699 19.1524C7.27057 18.6036 6.95236 17.8594 6.95236 17.0834V16.3519M18.0747 14.8629C16.8628 13.426 16.0072 12.6945 16.0072 8.73304C16.0072 5.10533 14.095 3.81288 12.5211 3.18518C12.312 3.10197 12.1152 2.91087 12.0515 2.70286C11.7754 1.79261 11.0015 0.990723 9.97268 0.990723C8.94389 0.990723 8.16946 1.79307 7.89621 2.70377C7.8325 2.91407 7.63571 3.10197 7.42664 3.18518C5.85088 3.8138 3.94053 5.10167 3.94053 8.73304C3.93817 12.6945 3.08256 13.426 1.87066 14.8629C1.36853 15.4581 1.80836 16.3519 2.68662 16.3519H17.2635C18.137 16.3519 18.574 15.4554 18.0747 14.8629Z" stroke="#5B0AE1" stroke-width="2" stroke-linecap="round" stroke-linejoin="round"/>
</svg>
