<svg width="21" height="21" viewBox="0 0 21 21" fill="none" xmlns="http://www.w3.org/2000/svg">
<path d="M12.9654 10.2879L10.3012 8.51122C10.1756 8.42741 10.0296 8.37931 9.87872 8.37206C9.72788 8.3648 9.57791 8.39868 9.44483 8.47005C9.31175 8.54142 9.20057 8.64762 9.12317 8.77728C9.04576 8.90695 9.00505 9.05521 9.00537 9.20622V12.7587C9.00535 12.9096 9.04629 13.0576 9.12381 13.1871C9.20134 13.3165 9.31254 13.4224 9.44557 13.4936C9.57859 13.5648 9.72845 13.5985 9.87914 13.5912C10.0298 13.5839 10.1757 13.5358 10.3012 13.4521L12.9654 11.6754C13.0795 11.5993 13.1731 11.4962 13.2378 11.3752C13.3025 11.2543 13.3364 11.1192 13.3364 10.9821C13.3364 10.8449 13.3025 10.7098 13.2378 10.5889C13.1731 10.4679 13.0795 10.364 12.9654 10.2879Z" stroke="#584FBD" stroke-width="1.5" stroke-linecap="round" stroke-linejoin="round"/>
<path d="M18.1719 10.9812C18.1719 11.9661 17.9779 12.9414 17.601 13.8513C17.2241 14.7613 16.6716 15.5881 15.9752 16.2845C15.2787 16.9809 14.4519 17.5334 13.542 17.9103C12.6321 18.2872 11.6568 18.4812 10.6719 18.4812C9.68696 18.4812 8.71169 18.2872 7.80175 17.9103C6.89181 17.5334 6.06501 16.9809 5.36857 16.2845C4.67213 15.5881 4.11969 14.7613 3.74278 13.8513C3.36587 12.9414 3.17187 11.9661 3.17188 10.9812C3.17188 8.99208 3.96205 7.08442 5.36857 5.6779C6.7751 4.27138 8.68275 3.4812 10.6719 3.4812C12.661 3.4812 14.5687 4.27138 15.9752 5.6779C17.3817 7.08442 18.1719 8.99208 18.1719 10.9812Z" stroke="#584FBD" stroke-width="1.5" stroke-linecap="round" stroke-linejoin="round"/>
</svg>
