<svg width="18" height="19" viewBox="0 0 18 19" fill="none" xmlns="http://www.w3.org/2000/svg">
<path d="M17.044 17.7823L12.9644 13.7026M14.9644 8.70264C14.9644 9.62189 14.7833 10.5321 14.4315 11.3814C14.0797 12.2307 13.5641 13.0024 12.9141 13.6524C12.2641 14.3024 11.4924 14.818 10.6431 15.1698C9.79386 15.5216 8.88361 15.7026 7.96436 15.7026C7.0451 15.7026 6.13485 15.5216 5.28557 15.1698C4.43629 14.818 3.66462 14.3024 3.01461 13.6524C2.3646 13.0024 1.84898 12.2307 1.4972 11.3814C1.14542 10.5321 0.964355 9.62189 0.964355 8.70264C0.964355 6.84612 1.70185 5.06564 3.01461 3.75289C4.32736 2.44013 6.10784 1.70264 7.96436 1.70264C9.82087 1.70264 11.6013 2.44013 12.9141 3.75289C14.2269 5.06564 14.9644 6.84612 14.9644 8.70264Z" stroke="#5B0AE1" stroke-width="1.5" stroke-linecap="round" stroke-linejoin="round"/>
</svg>
