<svg width="24" height="24" viewBox="0 0 24 24" fill="none" xmlns="http://www.w3.org/2000/svg">
<path d="M6 18.0082L6.01 17.9971" stroke="white" stroke-width="1.5" stroke-linecap="round" stroke-linejoin="round"/>
<path d="M6 6.00818L6.01 5.99707" stroke="white" stroke-width="1.5" stroke-linecap="round" stroke-linejoin="round"/>
<path d="M2 9.39805V2.59805C2 2.26668 2.26863 1.99805 2.6 1.99805H21.4C21.7314 1.99805 22 2.26668 22 2.59805V9.39805C22 9.72942 21.7314 9.99805 21.4 9.99805H2.6C2.26863 9.99805 2 9.72942 2 9.39805Z" stroke="white" stroke-width="1.5"/>
<path d="M2 21.398V14.598C2 14.2666 2.26863 13.998 2.6 13.998H21.4C21.7314 13.998 22 14.2666 22 14.598V21.398C22 21.7294 21.7314 21.998 21.4 21.998H2.6C2.26863 21.998 2 21.7294 2 21.398Z" stroke="white" stroke-width="1.5"/>
</svg>
