<svg width="17" height="18" viewBox="0 0 17 18" fill="none" xmlns="http://www.w3.org/2000/svg">
<path d="M14.1997 4.83333L13.4772 14.9517C13.4473 15.3722 13.2591 15.7657 12.9506 16.053C12.6422 16.3403 12.2363 16.5 11.8147 16.5H4.91804C4.49649 16.5 4.0906 16.3403 3.78211 16.053C3.47363 15.7657 3.28547 15.3722 3.25554 14.9517L2.53304 4.83333M6.69971 8.16667V13.1667M10.033 8.16667V13.1667M10.8664 4.83333V2.33333C10.8664 2.11232 10.7786 1.90036 10.6223 1.74408C10.466 1.5878 10.2541 1.5 10.033 1.5H6.69971C6.47869 1.5 6.26673 1.5878 6.11045 1.74408C5.95417 1.90036 5.86637 2.11232 5.86637 2.33333V4.83333M1.69971 4.83333H15.033" stroke="#5B0AE1" stroke-width="2" stroke-linecap="round" stroke-linejoin="round"/>
</svg>
