<svg width="21" height="17" viewBox="0 0 21 17" fill="none" xmlns="http://www.w3.org/2000/svg">
<path d="M7.36621 9.8335H13.3662M1.36621 13.8335V3.8335C1.36621 3.30306 1.57692 2.79436 1.952 2.41928C2.32707 2.04421 2.83578 1.8335 3.36621 1.8335H9.36621L11.3662 3.8335H17.3662C17.8966 3.8335 18.4054 4.04421 18.7804 4.41928C19.1555 4.79436 19.3662 5.30306 19.3662 5.8335V13.8335C19.3662 14.3639 19.1555 14.8726 18.7804 15.2477C18.4054 15.6228 17.8966 15.8335 17.3662 15.8335H3.36621C2.83578 15.8335 2.32707 15.6228 1.952 15.2477C1.57692 14.8726 1.36621 14.3639 1.36621 13.8335Z" stroke="#5B0AE1" stroke-width="2" stroke-linecap="round" stroke-linejoin="round"/>
</svg>
